<svg width="51" height="51" viewBox="0 0 51 51" fill="none" xmlns="http://www.w3.org/2000/svg">
<path d="M12.2942 22.3381L35.8515 45.8953C37.9299 47.9737 40.8905 48.5632 43.6067 47.4379C46.323 46.3132 48 43.8028 48 40.863V17.3064C48 13.3866 44.8029 10.1896 40.8832 10.1896H17.3265C14.3867 10.1896 11.8763 11.8672 10.7516 14.5828C9.62625 17.2985 10.2158 20.2597 12.2942 22.3381ZM12.2942 22.3381L30.7666 40.8104H33.6735M12.2942 22.3381C10.2158 20.2597 9.62687 17.2985 10.7522 14.5822C11.877 11.866 14.3873 10.1896 17.3278 10.1896H20.2346H20.2334L38.7058 28.6619M38.7058 28.6619C40.7842 30.7409 41.3737 33.7022 40.2484 36.4178C39.1237 39.1334 36.6133 40.8104 33.6735 40.8104M38.7058 28.6619L15.1485 5.10473C13.0701 3.02632 10.1095 2.43676 7.39327 3.56211C4.67703 4.68685 3 7.19719 3 10.137V33.6936C3 37.6134 6.19705 40.8104 10.1168 40.8104H33.6735M38.7058 28.6619C40.7842 30.7403 41.3737 33.7015 40.2484 36.4172C39.1237 39.1328 36.6133 40.8104 33.6735 40.8104" stroke="#FEFEFE" stroke-width="5.66983" stroke-miterlimit="22.9256" stroke-linejoin="bevel"/>
</svg>
