<svg width="207" height="51" viewBox="0 0 207 51" fill="none" xmlns="http://www.w3.org/2000/svg">
<path d="M12.2942 22.3381L35.8515 45.8953C37.9299 47.9737 40.8905 48.5632 43.6067 47.4379C46.323 46.3132 48 43.8028 48 40.863V17.3064C48 13.3866 44.8029 10.1896 40.8832 10.1896H17.3265C14.3867 10.1896 11.8763 11.8672 10.7516 14.5828C9.62625 17.2985 10.2158 20.2597 12.2942 22.3381ZM12.2942 22.3381L30.7666 40.8104H33.6735M12.2942 22.3381C10.2158 20.2597 9.62687 17.2985 10.7522 14.5822C11.877 11.866 14.3873 10.1896 17.3278 10.1896H20.2346H20.2334L38.7058 28.6619M38.7058 28.6619C40.7842 30.7409 41.3737 33.7022 40.2484 36.4178C39.1237 39.1334 36.6133 40.8104 33.6735 40.8104M38.7058 28.6619L15.1485 5.10473C13.0701 3.02632 10.1095 2.43676 7.39327 3.56211C4.67703 4.68685 3 7.19719 3 10.137V33.6936C3 37.6134 6.19705 40.8104 10.1168 40.8104H33.6735M38.7058 28.6619C40.7842 30.7403 41.3737 33.7015 40.2484 36.4172C39.1237 39.1328 36.6133 40.8104 33.6735 40.8104" stroke="#FEFEFE" stroke-width="5.66983" stroke-miterlimit="22.9256" stroke-linejoin="bevel"/>
<path d="M71.0053 33L65.9707 26.3867V33H62.3227V18.024H65.9707V24.5947L70.9626 18.024H75.2506L69.448 25.3627L75.464 33H71.0053ZM86.5203 30.3547H80.9309L80.0349 33H76.2163L81.6349 18.024H85.8589L91.2776 33H87.4163L86.5203 30.3547ZM85.5816 27.5387L83.7256 22.056L81.8909 27.5387H85.5816ZM109.887 18.024V33H106.239V24.0187L102.889 33H99.9454L96.5747 23.9974V33H92.9267V18.024H97.2361L101.439 28.392L105.599 18.024H109.887ZM116.158 18.024V33H112.51V18.024H116.158ZM124.412 18.024C125.991 18.024 127.371 18.3369 128.551 18.9627C129.731 19.5885 130.642 20.4703 131.282 21.608C131.936 22.7316 132.263 24.0329 132.263 25.512C132.263 26.9769 131.936 28.2782 131.282 29.416C130.642 30.5538 129.724 31.4356 128.53 32.0613C127.349 32.6871 125.977 33 124.412 33H118.802V18.024H124.412ZM124.178 29.8427C125.557 29.8427 126.631 29.4658 127.399 28.712C128.167 27.9582 128.551 26.8916 128.551 25.512C128.551 24.1325 128.167 23.0587 127.399 22.2907C126.631 21.5227 125.557 21.1387 124.178 21.1387H122.45V29.8427H124.178ZM137.95 20.9467V23.976H142.835V26.792H137.95V30.0773H143.475V33H134.302V18.024H143.475V20.9467H137.95ZM159.241 33H155.593L149.491 23.7627V33H145.843V18.024H149.491L155.593 27.304V18.024H159.241V33ZM171.826 22.76C171.556 22.2623 171.165 21.8854 170.653 21.6294C170.155 21.3591 169.565 21.224 168.882 21.224C167.702 21.224 166.756 21.6151 166.045 22.3974C165.334 23.1654 164.978 24.1965 164.978 25.4907C164.978 26.8702 165.348 27.9511 166.088 28.7333C166.841 29.5013 167.872 29.8853 169.181 29.8853C170.077 29.8853 170.831 29.6578 171.442 29.2027C172.068 28.7476 172.523 28.0933 172.808 27.24H168.178V24.552H176.114V27.944C175.844 28.8542 175.382 29.7005 174.728 30.4827C174.088 31.2649 173.27 31.8978 172.274 32.3813C171.279 32.8649 170.155 33.1067 168.904 33.1067C167.424 33.1067 166.102 32.7867 164.936 32.1467C163.784 31.4924 162.88 30.5893 162.226 29.4373C161.586 28.2853 161.266 26.9698 161.266 25.4907C161.266 24.0116 161.586 22.696 162.226 21.544C162.88 20.3778 163.784 19.4747 164.936 18.8347C166.088 18.1805 167.403 17.8534 168.882 17.8534C170.674 17.8534 172.182 18.2872 173.405 19.1547C174.642 20.0223 175.46 21.224 175.858 22.76H171.826ZM187.457 30.3547H181.868L180.972 33H177.154L182.572 18.024H186.796L192.215 33H188.353L187.457 30.3547ZM186.519 27.5387L184.663 22.056L182.828 27.5387H186.519ZM201.501 33L198.387 27.3467H197.512V33H193.864V18.024H199.987C201.167 18.024 202.17 18.2303 202.995 18.6427C203.834 19.0551 204.459 19.624 204.872 20.3494C205.284 21.0605 205.491 21.8569 205.491 22.7387C205.491 23.7342 205.206 24.6231 204.637 25.4054C204.083 26.1876 203.258 26.7422 202.163 27.0693L205.619 33H201.501ZM197.512 24.7654H199.773C200.442 24.7654 200.94 24.6018 201.267 24.2747C201.608 23.9476 201.779 23.4854 201.779 22.888C201.779 22.3191 201.608 21.8711 201.267 21.544C200.94 21.2169 200.442 21.0534 199.773 21.0534H197.512V24.7654Z" fill="#FEFEFE"/>
</svg>
