<svg width="203" height="45" viewBox="0 0 203 45" fill="none" xmlns="http://www.w3.org/2000/svg">
<path d="M12.1486 2.10492L35.7052 25.6617C37.7839 27.7404 38.3732 30.7016 37.248 33.4168C36.1228 36.1327 33.613 37.8098 30.6727 37.8098H7.11675C3.1972 37.8098 0 34.6126 0 30.693V7.13685C0 4.19716 1.67709 1.68671 4.39294 0.562103C7.10878 -0.563122 10.0699 0.0261649 12.148 2.1043L12.1486 2.10492Z" fill="#E85879"/>
<path d="M32.8514 42.8951L9.29483 19.3383C7.21609 17.2596 6.62681 14.2984 7.75202 11.5832C8.87724 8.86729 11.387 7.19019 14.3273 7.19019H37.8832C41.8028 7.19019 45 10.3874 45 14.307V37.8631C45 40.8028 43.3229 43.3133 40.6071 44.4379C37.8912 45.5631 34.9301 44.9738 32.852 42.8957L32.8514 42.8951Z" fill="#3EBAF6"/>
<path d="M17.2339 7.18958L35.7058 25.6617C37.7845 27.741 38.3732 30.7016 37.2486 33.4174C36.1234 36.1333 33.6136 37.8104 30.6733 37.8104H27.7661L9.29421 19.3383C7.21609 17.2596 6.62681 14.299 7.75202 11.5826C8.87724 8.86668 11.387 7.18958 14.3273 7.18958H17.2339Z" fill="#4659B5"/>
<path d="M67.0053 30L61.9707 23.3867V30H58.3227V15.024H61.9707V21.5947L66.9626 15.024H71.2506L65.448 22.3627L71.464 30H67.0053ZM82.5203 27.3547H76.9309L76.0349 30H72.2163L77.6349 15.024H81.8589L87.2776 30H83.4163L82.5203 27.3547ZM81.5816 24.5387L79.7256 19.056L77.8909 24.5387H81.5816ZM105.887 15.024V30H102.239V21.0187L98.8894 30H95.9454L92.5747 20.9974V30H88.9267V15.024H93.2361L97.4387 25.392L101.599 15.024H105.887ZM112.158 15.024V30H108.51V15.024H112.158ZM120.412 15.024C121.991 15.024 123.371 15.3369 124.551 15.9627C125.731 16.5885 126.642 17.4703 127.282 18.608C127.936 19.7316 128.263 21.0329 128.263 22.512C128.263 23.9769 127.936 25.2782 127.282 26.416C126.642 27.5538 125.724 28.4356 124.53 29.0613C123.349 29.6871 121.977 30 120.412 30H114.802V15.024H120.412ZM120.178 26.8427C121.557 26.8427 122.631 26.4658 123.399 25.712C124.167 24.9582 124.551 23.8916 124.551 22.512C124.551 21.1325 124.167 20.0587 123.399 19.2907C122.631 18.5227 121.557 18.1387 120.178 18.1387H118.45V26.8427H120.178ZM133.95 17.9467V20.976H138.835V23.792H133.95V27.0773H139.475V30H130.302V15.024H139.475V17.9467H133.95ZM155.241 30H151.593L145.491 20.7627V30H141.843V15.024H145.491L151.593 24.304V15.024H155.241V30ZM167.826 19.76C167.556 19.2623 167.165 18.8854 166.653 18.6294C166.155 18.3591 165.565 18.224 164.882 18.224C163.702 18.224 162.756 18.6151 162.045 19.3974C161.334 20.1654 160.978 21.1965 160.978 22.4907C160.978 23.8702 161.348 24.9511 162.088 25.7333C162.841 26.5013 163.872 26.8853 165.181 26.8853C166.077 26.8853 166.831 26.6578 167.442 26.2027C168.068 25.7476 168.523 25.0933 168.808 24.24H164.178V21.552H172.114V24.944C171.844 25.8542 171.382 26.7005 170.728 27.4827C170.088 28.2649 169.27 28.8978 168.274 29.3813C167.279 29.8649 166.155 30.1067 164.904 30.1067C163.424 30.1067 162.102 29.7867 160.936 29.1467C159.784 28.4924 158.88 27.5893 158.226 26.4373C157.586 25.2853 157.266 23.9698 157.266 22.4907C157.266 21.0116 157.586 19.696 158.226 18.544C158.88 17.3778 159.784 16.4747 160.936 15.8347C162.088 15.1805 163.403 14.8534 164.882 14.8534C166.674 14.8534 168.182 15.2872 169.405 16.1547C170.642 17.0223 171.46 18.224 171.858 19.76H167.826ZM183.457 27.3547H177.868L176.972 30H173.154L178.572 15.024H182.796L188.215 30H184.353L183.457 27.3547ZM182.519 24.5387L180.663 19.056L178.828 24.5387H182.519ZM197.501 30L194.387 24.3467H193.512V30H189.864V15.024H195.987C197.167 15.024 198.17 15.2303 198.995 15.6427C199.834 16.0551 200.459 16.624 200.872 17.3494C201.284 18.0605 201.491 18.8569 201.491 19.7387C201.491 20.7342 201.206 21.6231 200.637 22.4054C200.083 23.1876 199.258 23.7422 198.163 24.0693L201.619 30H197.501ZM193.512 21.7654H195.773C196.442 21.7654 196.94 21.6018 197.267 21.2747C197.608 20.9476 197.779 20.4854 197.779 19.888C197.779 19.3191 197.608 18.8711 197.267 18.544C196.94 18.2169 196.442 18.0534 195.773 18.0534H193.512V21.7654Z" fill="#424242"/>
</svg>
