<?xml version="1.0" encoding="UTF-8"?>
<!DOCTYPE svg PUBLIC "-//W3C//DTD SVG 1.1//EN" "http://www.w3.org/Graphics/SVG/1.1/DTD/svg11.dtd">
<!-- Creator: CorelDRAW -->
<svg xmlns="http://www.w3.org/2000/svg" xml:space="preserve" width="228.938mm" height="118.467mm" version="1.1" style="shape-rendering:geometricPrecision; text-rendering:geometricPrecision; image-rendering:optimizeQuality; fill-rule:evenodd; clip-rule:evenodd"
viewBox="0 0 25297.07 13090.31"
 xmlns:xlink="http://www.w3.org/1999/xlink"
 xmlns:xodm="http://www.corel.com/coreldraw/odm/2003">
 <defs>
  <style type="text/css">
   <![CDATA[
    .fil12 {fill:black}
    .fil4 {fill:#3E507B}
    .fil3 {fill:#6876A8}
    .fil8 {fill:#68B6D8}
    .fil16 {fill:#7796C7}
    .fil13 {fill:#7C566D}
    .fil7 {fill:#93B4E9}
    .fil5 {fill:#A27B90}
    .fil2 {fill:#A89DAE}
    .fil1 {fill:#C9BDCE}
    .fil9 {fill:#DDD8DF}
    .fil15 {fill:#E5F4FD}
    .fil0 {fill:#E6E3F2}
    .fil14 {fill:#F28460}
    .fil10 {fill:#F5B269}
    .fil11 {fill:#FFCB97}
    .fil6 {fill:white}
   ]]>
  </style>
 </defs>
 <g id="Layer_x0020_1">
  <metadata id="CorelCorpID_0Corel-Layer"/>
  <g id="_2351890210528">
   <path class="fil0" d="M10832.43 6291.17c0.15,-147.86 57.04,-285.8 126.07,-381.23 243.59,-336.75 731.36,-380.45 1025.98,-87.7 21.31,21.19 40.44,39.83 60.43,65.69 18.85,24.4 33.23,46.71 51.19,75.18 29.66,47.04 56.75,114.39 71.89,176.12 52.13,212.48 1.43,425.53 -125.94,588.25 -196.72,251.32 -540.1,325.67 -831.49,188.51 -75.44,-35.5 -131.91,-83.65 -186.45,-137.89 -114.2,-113.59 -191.9,-272.76 -191.67,-486.94zm2786.6 -1102.32c0.51,-149.69 -0.45,-299.45 0,-449.13 0.39,-127.24 94.22,-217.96 223.39,-218.7 886.69,-5.1 1777.5,6.14 2665.26,0.02 20.62,-36.31 28.74,-65.48 56.07,-94.65 84.69,-90.43 227.15,-109.65 356.18,-93.66 122.2,15.13 232.44,62.13 330.77,128.44l85.46 61.15c55.96,-5.35 132.21,-1.17 190.44,-1.17l1316.75 0c109.35,0 692.24,-7.61 750.17,4.94 92.21,19.99 165.94,100.62 169.76,204.62 4.45,121.47 0.08,251.99 0.08,374.48l0 2633.48c0,16.42 -5.81,353.72 4.61,369.68 16.6,-33.61 101.73,-98.22 141.37,-124.43 184.19,-121.82 424.44,-142.75 627.72,-58.7 250.2,103.48 425.13,351.41 421.14,629.47 -3.17,219.92 -103.35,408.54 -258.48,530.83 -167.8,132.24 -399.28,180.34 -614.93,117.62 -62.93,-18.3 -131.73,-51.43 -178.54,-83.28 -39.4,-26.83 -122.3,-90.48 -138.93,-122.93 -8.73,15.49 -3.97,66.94 -3.97,85.54l0 622.29c0,136.18 12.69,211.04 -67.54,288.77 -74.32,72.04 -167.81,58.6 -293.3,58.6l-5330.11 0c-230.09,0 -453.39,40.91 -453.3,-252.66l0 -3553.41c0,-115.64 4.03,-238.67 -0.57,-353.38l-123.35 -74.95c-43.59,-28.97 -139.6,-87.66 -149.65,-144.52 -21.36,-120.96 152.54,-58.66 192.59,-56.17 -41.96,-8.1 -164.73,-103.98 -197.18,-181.9 -63.3,-151.98 148.77,-95.65 227.43,-82.02 -5.61,-10.33 -179.22,-199.34 50.67,-164.28zm3857.97 -1375.68c143.65,0 144.71,216.32 0.01,216.9 -149.47,0.59 -148.48,-216.9 -9.03,-216.9l9.02 0zm-2369.88 -82.59c-50.12,5.92 -125.08,1.6 -177.93,1.57l-4707.8 0c-256.45,0 -415.72,-26.45 -566.7,125.43 -153.22,154.12 -125.45,311.36 -125.45,571.19l0 3485.77c0,462.19 -4.91,927.14 0.13,1388.92 29.07,6.71 63.67,-2.74 91.46,4.93l7.61 3.48c133.79,8.06 269.13,56.38 367.43,118.03l71.43 50.21c22.51,11.62 324.39,5.22 362.5,5.05l1.2 -57.64c-140.66,-0.67 -220.98,-145.86 -221.03,-286.43 -0.03,-145.09 82.84,-281.32 221.03,-286.43l0 -131.59c16.45,1.85 44.4,11.62 67.36,14.75 111.01,15.13 453.97,23.48 525.68,-18.21l0.04 765.3 187.24 -0.45c-2.09,-258.43 -0.1,-517.74 -0.1,-776.28 0,-95.6 -10.38,-299.24 13.8,-375.95 28.59,-90.74 102.39,-171.51 186.71,-202.23l0.18 -192.84c-137.75,0.71 -124.03,-106.8 -99.15,-139.72 41.04,-54.29 130.18,-38.6 225.37,-38.6 93.97,0 186.49,-16.7 223.11,40.98 27.82,43.81 25.73,137.79 -99.11,137.36l0.04 189.28c38.72,30.92 93.69,37.12 156.15,139.05 65.58,106.98 44.42,292.51 44.42,438.16 0,260.53 -0.18,521.05 0,781.57 60.07,-2.03 488.8,-6.15 510.32,2.77 134.98,4.74 253.13,154.99 195.19,318.1 -21.79,61.33 -74.14,112.04 -135.94,134.4 -68.4,24.74 -177.79,14.54 -258.35,14.42l-0.4 1077.6c470.98,5.16 945.02,0.14 1416.34,0.14l8829.4 0c121.36,0 202.67,-5.3 289.94,-63.98 67.87,-45.65 128.06,-102.82 164.08,-187.46 46.5,-109.25 37.26,-185.77 37.26,-314.4 0,-1883.42 0,-3766.84 0,-5650.27 0,-64.69 3.85,-655.23 -2.33,-704.3 -24.12,-191.53 -160.53,-333.95 -333.87,-370.33 -89.57,-18.81 -248.33,-9.77 -348.98,-9.77 -1290.48,0 -2590.94,-8.93 -3878.09,0.12 -0.39,48.67 -7.25,83.65 -30.73,114.86 -98.12,130.44 -251.12,40.21 -298.48,130.6 -31.9,-10.2 -33.85,-19.89 -64.34,-42.82l-41.6 -29.46c3.87,-21.81 10.25,-26.39 26.22,-39.22 93.35,-74.98 267.43,-1.23 273.8,-134.09 -342.77,4.92 -689.57,0 -1032.8,0l-965.03 0c-25.87,-0.03 -46.9,-3.41 -57.58,5.56 8.24,30.12 133.28,248.42 151.16,295.25 -22.09,-5.38 -485.74,-244.23 -515.92,-259.92 -49.2,-25.57 -94.98,-56.31 -138.83,-49.24 -94.4,15.23 -270.91,24.75 -367.35,18.94 -39.79,-2.39 -148.74,-16.11 -178.72,-12.19z"/>
   <path class="fil1" d="M17189.25 3157.12c62.15,-80.42 211.01,-127.79 328.43,-121.5 191.98,10.28 399.29,97.45 368.7,305.98 -26.76,182.45 -192.85,209.46 -262.28,300.71 -30.76,40.41 -19.98,54.45 -34.3,71.43l-171.48 -24.45c17.57,-196.84 255.18,-207.89 281.53,-344.52 25.37,-131.58 -166.41,-187.77 -294.84,-142.09 -56.57,20.12 -73.72,47.49 -94.86,60.09l-120.9 -105.64zm-1032.48 580.62c10.69,-8.97 31.71,-5.59 57.58,-5.56l965.03 0c343.23,0 690.02,4.92 1032.8,0 -6.38,132.86 -180.45,59.11 -273.8,134.09 -15.97,12.83 -22.35,17.4 -26.22,39.22l41.6 29.46c30.5,22.93 32.44,32.62 64.34,42.82 47.36,-90.39 200.35,-0.15 298.48,-130.6 23.48,-31.22 30.34,-66.19 30.73,-114.86 1287.15,-9.05 2587.62,-0.12 3878.09,-0.12 100.65,0 259.41,-9.04 348.98,9.77 173.34,36.39 309.75,178.81 333.87,370.33 6.18,49.07 2.33,639.61 2.33,704.3 0,1883.43 0,3766.85 0,5650.27 0,128.63 9.24,205.15 -37.26,314.4 -36.02,84.64 -96.21,141.81 -164.08,187.46 -87.27,58.67 -168.59,63.98 -289.94,63.98l-8829.4 0c-471.33,0 -945.36,5.02 -1416.34,-0.14l0.33 701.14 11307.49 2.15 -0.06 -8051.11c0,-95.92 4.56,-206.46 -3.55,-297.41 -27.28,-305.98 -286.71,-570.53 -607.54,-584.27l-6195.43 0.02c0,-2.59 0.18,-8.66 -0.3,-10.45 -2.25,-8.49 -1.73,-5.98 -4.44,-10.38 4.32,125.68 -0.91,192.11 -45.11,302.8 -17.13,42.86 -37.67,80.43 -59.82,116.1 -12.64,20.34 -22.24,33.87 -36.95,53.28l-38.11 47.62c-65.56,84.91 -192.54,179.3 -292.08,235.6l-115.44 61.4c7.25,20.67 62.41,128.43 74.21,138.7z"/>
   <path class="fil1" d="M1522.49 12534.12c0.45,122.6 -14.73,257.88 -179.97,257.43 -86.3,-0.23 -115.66,-14.25 -157.78,-61.24 -33.05,-36.87 -35.75,-76.45 -42.11,-123.94 -1.85,-13.79 -1.73,-35.35 -9.36,-46.8l-2.85 11.49c-127.27,16.64 -771.92,84.97 -316.04,178.48 337.7,69.26 1147.84,115.24 1490.76,135.96 258.34,15.61 516.04,21.96 773.34,38.32 260.54,16.6 523.97,16.09 784.63,30.56 130.01,7.22 262.3,7.17 392.32,13.25 129.08,6.03 265.33,10.23 392.5,13.3 134.42,3.25 268.12,10.45 401.16,11.38l396.17 9.58c123.64,8.53 265.85,6.01 393.23,10.51 132.43,4.67 268.32,2.07 397.7,8.83 66.43,3.46 139.16,-1.46 205.04,3.61l398.1 7.92c63.47,-0.23 133.92,0.13 198.42,3.93 129.29,7.61 267.8,1.26 397.74,7.17 132.48,6.02 268.24,0.27 400.42,4.76 133.82,4.54 271.43,6.71 405.85,6.7 132.65,0 266.41,4.74 401.35,4.49 265.37,-0.51 534.03,9.03 802.66,9.03 803.38,-0.01 1620.42,15.77 2426.06,15.77 268.12,0 545.11,-6.44 811.69,2.33 267.4,8.76 547.57,-2.33 816.21,-2.33 135.28,0 270.56,0 405.85,0 132.42,0 274.01,4.85 405.29,-0.06 131.11,-4.91 271.65,-2.19 406.4,-2.19l1208.29 -9.09c136.39,-1.98 274.28,-2.17 410.59,-2.17 395.17,0 808.77,-13.56 1204,-13.56 264.99,0 536.67,-11.93 802.67,-11.24 265.01,0.69 532.58,-9.78 798.17,-13.48 133.11,-1.86 269.62,-9.29 401.24,-9.15 128.19,0.15 270.99,-1.19 397.28,-8.44 130.41,-7.49 265.75,-5.41 396.28,-9.46 131.98,-4.08 267.74,-8.99 397.03,-8.96 132.95,0.03 268.21,-11.89 401.5,-11.38 125.81,0.48 266.43,-6.75 392.14,-11.41 260.23,-9.64 522.78,-15.69 784.64,-27.15 520.83,-22.8 1037.85,-44.07 1555.19,-74.34 317.03,-18.56 803.55,-51.64 1117.66,-97.45 71.07,-10.36 189.09,-29.14 255.47,-51.64 278.08,-94.22 -536.19,-164.76 -606.17,-171.85 -29.4,-2.97 -85.38,-2.67 -101.03,-15.49 -95.51,43.25 -234.5,29.94 -354.24,29.94 -3485.76,0 -6971.53,0 -10457.3,0 -514.34,0 -1033.46,-6.96 -1547.21,0.19 1.75,57.56 9.03,131.39 -13.93,176.66 -48.67,95.99 -182.43,94.2 -230.27,-2.31 -19.87,-40.06 -10.95,-121.66 -12.62,-174.38l-1496.87 0.15c-3.96,32.74 9.02,127.24 -9.17,145.57 -17.9,88.76 -113.96,123.81 -185.11,86.78 -27.76,-14.44 -56.98,-45.94 -65.03,-84.1 -5.96,-28.3 -2.9,-112.73 -1.75,-148.43l-947.97 -0.14c-5.67,49.99 -9.4,106.32 -34.15,147.94 -72.43,121.82 -302.88,105.19 -340.51,-45.47 -11.48,-45.94 -7.72,-117.18 -12.6,-168.99 -7.77,-82.61 -17.04,-336.38 -19.35,-431.6 -0.33,-13.6 3.23,-69.52 -6.45,-78.39 -11.03,-10.09 -820.91,-4.1 -903.16,-4.08l-6241.01 -1.14c-25.86,0 -90.01,-10.25 -106.51,6.67l6279.87 0c-0.87,-0.78 1.77,-13.77 -6.92,7.66l-15.34 58.7c-6.08,29.31 -9.4,57.02 -9.38,91.5 0.07,94.17 14.21,105.12 30.54,168.93 -101.77,0.67 -309.92,0.18 -400.78,6.23 -61.34,4.09 -139.92,2.91 -202.38,2.87 -63.91,-0.03 -132.86,0.93 -198.42,4.22 -66.55,3.35 -136.18,2.17 -202.92,2.44l-396.61 9.19c-64.82,1.02 -138.09,-0.14 -199.35,3.8 -132.34,8.53 -268.93,0.19 -401.59,8.85 -64.03,4.2 -135.44,1.34 -197.6,4.86 -63.02,3.57 -136.2,4.2 -198.07,5.03 -107.96,1.46 -297.3,3.2 -397.02,9.72 -128.35,8.39 -265.05,1.38 -394.36,11.33l-394.6 12.67c-130.92,-0.24 -264.86,12.46 -392.39,13.54 -69.16,0.59 -133.6,4.85 -203.04,6.87 -63.83,1.85 -131.61,3.81 -194.87,8.04 -128.85,8.65 -263.12,11.36 -391.49,16.43 -127.46,5.04 -259.23,13.12 -388.13,18.01 -131.15,4.99 -259.06,15.66 -387.37,20.48 -138,5.19 -640.63,35.12 -762.31,51.73z"/>
   <path class="fil2" d="M12173.46 12566.24c513.75,-7.15 1032.86,-0.19 1547.21,-0.19 3485.77,0 6971.54,0 10457.3,0 119.75,0 258.73,13.3 354.24,-29.94 51.54,-13.69 89.37,-47.14 123.96,-75.88 59.33,-49.3 104.63,-122.93 123.93,-209.9 27.87,-125.48 1.39,-264.36 -78.75,-363.32 -10.02,-12.38 -23.52,-26.41 -30.61,-37.27 -29.66,-18.67 -31.17,-31.07 -97.68,-69.01 -118.03,-67.31 -298.59,-46.8 -440.19,-46.8 -57.14,0 -610.4,-3.75 -651.49,1.89l-11307.49 -2.15 -0.43 832.56z"/>
   <path class="fil3" d="M5129.67 7203.28c29.99,21.71 24.3,30.2 17.92,70.41l-32.57 210.41c-6.15,39.44 -8.88,28.9 -14.04,32.2l-46.51 256.18c66.04,-0.02 133.18,-6.46 197.47,-10.45l579.82 -33.69c139.98,-9.94 278.22,-37.89 211.77,143.62 -36.85,100.66 -74.48,197.44 -110.51,296.5 38.3,-4.21 100.22,-25.09 138.99,-33.89 142.39,-32.29 297.13,-58.14 447.14,-62.12 245.22,-6.49 399.12,25.04 511.23,169.48 99.8,128.59 142.22,339.7 142.69,538.23 0.43,189.11 -21.06,439.47 -62.19,615.86 21.76,12.85 149.26,49.61 184.22,60.28 63.91,19.5 540.58,171.01 562.28,185.35 -14.36,51.81 -81.11,166.77 -84.87,208.53 15.93,-8.97 49.29,-39.03 65.33,-53.2 9.23,-8.14 20.15,-17.09 32.08,-26.54l365.53 -301.93c98.55,-87.12 43.03,-15.25 112.65,-126.44 52.56,-83.92 91.67,-135.48 162.19,-203.07 96.78,-92.77 282.61,-76.67 402.4,-46.52 186.5,46.95 182.82,107.54 147.6,303.89 -23.2,129.35 -59.19,263.56 -102.44,384.22 -17.24,48.09 -90.99,180.46 -120.86,239.85l-167.91 319.2c-13.46,23.25 -35.23,59.05 -42.57,82.12l182.01 5.1 22.12 46.27c114.65,239.17 334.56,409.91 600.95,454.38 51.14,8.54 96.62,7.43 149.39,12.34 76.85,-11.03 82.73,-3.02 180.94,-27.13 138.27,-33.94 269.32,-102.17 364.53,-202.54 19.93,-21.02 14.99,-18.92 33.97,-25.83l-1.87 -729.33c-54.73,-0.85 -112.55,2.19 -166.65,-0.21 -60.06,-2.66 -84.1,-24.75 -128.11,-44.92 6.96,20.59 20.18,36.14 30.91,58.33 112.36,232.19 -56.9,538.39 -362.59,515.91 -291.43,-21.44 -439.88,-395.22 -225.72,-612.11 116.11,-117.59 296.87,-147.65 446.18,-59.25 20.54,12.17 35.97,28.03 55.16,37.66 -10.21,-35.43 -28.54,-51.9 -33.54,-100.32 -11.23,-108.81 45.8,-208.5 145.91,-247.29 75.82,-29.38 124.02,-12.1 179.55,-10.72 64.77,1.61 295.74,4.19 328.99,-2.45l1.17 -4.46c-38.11,0.17 -339.99,6.57 -362.5,-5.05l-71.43 -50.21c-98.3,-61.66 -233.64,-109.98 -367.43,-118.03 -196.88,-8.46 -244.77,14.85 -408.11,73.78l-0.07 -2251.23c0.11,-185.19 -76.44,-341.14 -213.16,-445.15l-52.82 -33.94c-0.57,-1.6 -2.31,-1.18 -3.39,-1.89 -97.5,-69.17 -223.6,-75.94 -339.37,-75.94l-2916.83 0 -9.82 38.36c175.76,1.81 115.43,140.56 24.99,227.86 -10.44,10.08 -14.46,11.39 -24.78,20.24 -46.1,39.6 -60.23,54.9 -116.04,95.92 -109.83,80.73 -196.65,136.21 -317.01,197.11 -37.54,18.99 -80.27,32.49 -122.35,46.3z"/>
   <path class="fil4" d="M2395.29 10594.37c-36.01,8.53 -464.48,227.43 -544.73,263.26 -62.27,27.8 -120.55,69.51 -199.02,68.96 -41.17,21.83 -243.76,15.45 -295.59,4.49 -55.02,-11.61 -122.69,-48.45 -158.01,-85.27 -12.01,-12.52 -21.43,-29.05 -35.34,-41.33 -39.75,38.23 -207.79,71.36 -275.97,77.4 -62.54,5.56 -81.01,-6.81 -103.36,13.72 -27.75,105.33 -27.08,166.71 -27.08,283.72 0,105.55 -4.74,197.89 17.41,293.67 23.68,102.33 90.48,229.54 162.51,301.97l77.08 72.35c39.18,21.9 30.43,22.2 36.95,71.47 4.17,31.41 8.41,62.33 12.18,90.96 7.85,59.47 16.35,123.23 24.54,181.94 6.82,48.96 49.8,343.12 46.4,367.87 7.62,11.45 7.51,33.01 9.36,46.8 6.36,47.49 9.06,87.07 42.11,123.94 42.12,46.98 71.48,61.01 157.78,61.24 165.24,0.45 180.42,-134.83 179.97,-257.43l24.52 -543.12c16.5,-16.93 80.65,-6.67 106.51,-6.67l6241.01 1.14c82.25,-0.02 892.13,-6.01 903.16,4.08 9.68,8.86 6.12,64.78 6.45,78.39 2.31,95.23 11.58,348.99 19.35,431.6 4.87,51.81 1.12,123.05 12.6,168.99 37.62,150.66 268.08,167.29 340.51,45.47 24.75,-41.62 28.49,-97.96 34.15,-147.94 30.3,-189.69 54.84,-400.21 80.41,-594.77 14.92,-113.52 -1.05,-88.85 62.45,-139.81l69.88 -65.73c14.33,-14.11 16.73,-25.07 32.14,-35.72 6.01,-13.47 16.72,-22.95 25.82,-36.86 124.49,-190.52 115.38,-316.75 115.38,-536.35 0,-87.49 -5.15,-136.09 -15.88,-216.97 -52.77,-4.92 -98.25,-3.8 -149.39,-12.34 -266.39,-44.46 -486.3,-215.2 -600.95,-454.38l-22.12 -46.27 -182.01 -5.1c-12.77,8.19 -36.78,60.81 -46.03,77.24 -52.14,92.76 -131.56,229.64 -188.85,316.17l-155.65 218.55c-27.54,36.38 -87.2,101.41 -127.8,124.92 -58.03,33.6 -118.51,7.08 -204.63,-15.31 -129.86,-33.76 -263.7,-73.36 -387.96,-113.73 -7.01,11.78 1.24,26.77 6.64,44.15 24.95,80.33 65.82,268.11 -30.65,311.57 -118.49,53.37 -448.16,103.88 -593.79,96.01 -68.14,-3.68 -140.77,-13.72 -209.9,-20.59 -369.49,-36.71 -841.9,-88.4 -1183.07,-186.78 -58.82,-16.97 -116.09,-39.17 -162.25,-67.69 -60.31,-37.24 -57.56,-76.7 -68.43,-161.37 -8.62,-67.07 -14.36,-138.8 -22.74,-208.46 -8.08,-67.22 -7.12,-145.69 -17.19,-209.38 -93.97,-24.04 -363.3,-82.12 -452.02,-90.42 6.67,-14.17 7.6,-13.47 19.39,-24.33 29.85,-27.5 100.86,-119.61 124.1,-150.94 26.81,-36.14 118.51,-172.83 43.7,-216.03 -38.53,-22.25 -99.11,-8.25 -127.72,14.84 -87.97,70.95 -105.13,272.96 -92.39,371.99 -97.6,-0.61 -497.79,139.11 -615.3,178.08 -317.8,105.43 -984,313.65 -1310.75,245.97 -102.9,-21.31 -181.11,-75.16 -251.28,-145.06 -34.22,-34.1 -63.24,-62.45 -94.12,-104.27 -6.76,-9.16 -74.17,-109.65 -82.48,-112.46z"/>
   <path class="fil5" d="M3861.58 9007.72l18.52 1.39c-24.96,4.24 -90.75,31.62 -119.25,43.4 -40.64,16.76 -76.74,29.66 -119.35,47.22l-346.28 149.96c-264.41,118.82 -511.47,252.17 -765.51,388.83l-419.37 240.64c4.51,7.48 22.08,78.27 25.71,91.65 42.78,157.43 135.11,398.63 214.7,538.42 10.33,18.15 40.57,67.66 44.54,85.15 8.31,2.82 75.71,103.3 82.48,112.46 30.88,41.81 59.9,70.17 94.12,104.27 70.18,69.9 148.39,123.75 251.28,145.06 326.75,67.68 992.95,-140.54 1310.75,-245.97 117.51,-38.97 517.7,-178.69 615.3,-178.08 -12.74,-99.03 4.42,-301.04 92.39,-371.99 28.62,-23.09 89.19,-37.09 127.72,-14.84 74.81,43.2 -16.9,179.89 -43.7,216.03 -23.24,31.33 -94.25,123.44 -124.1,150.94 -11.79,10.86 -12.72,10.17 -19.39,24.33 88.72,8.3 358.06,66.38 452.02,90.42 157.61,42.12 337.27,79.03 498.6,121.22l985.33 254.78c163.92,42.67 330.09,90.6 491.01,131.06l76.08 -175.83c20.93,-41.26 43.71,-96.86 60.29,-138.7 51.33,-129.55 123.92,-274.43 182.34,-417.27l225.96 -518.03c3.18,-7.28 4.28,-11.99 8.04,-19.22l10.7 -14.86c3.77,-41.76 70.51,-156.72 84.87,-208.53 -21.7,-14.34 -498.37,-165.85 -562.28,-185.35 -34.96,-10.66 -162.46,-47.43 -184.22,-60.28 -66.83,-15.03 -139.68,-43.46 -205.25,-64.11 -328.07,-103.35 -681.4,-212.48 -1006.77,-305.58 -46.45,-13.28 -394.61,-107.33 -406.72,-115.8 -139.25,5.58 -273.37,15.36 -411.48,23.18 -135.79,7.69 -272.54,14.03 -408.43,23.76 -83.49,5.98 -798.83,39.15 -810.64,50.27z"/>
   <path class="fil1" d="M8950.89 6653.43c1.08,0.71 2.82,0.29 3.39,1.89l52.82 33.94c136.72,104.01 213.27,259.96 213.16,445.15l0.07 2251.23c163.34,-58.93 211.23,-82.24 408.11,-73.78l-7.61 -3.48c-27.79,-7.67 -62.39,1.78 -91.46,-4.93 -5.04,-461.78 -0.13,-926.73 -0.13,-1388.92l0 -3485.77c0,-259.83 -27.77,-417.07 125.45,-571.19 150.97,-151.88 310.24,-125.43 566.7,-125.43l4707.8 0c52.85,0.03 127.81,4.35 177.93,-1.57 -3.49,-2.12 -3.66,-2.52 -10.94,-4.75 -1.89,-0.57 -9.73,-2.31 -11.31,-2.6l-81.7 -13.64c-235.9,-47.45 -423.49,-125.04 -613.95,-265.03 -196.85,-144.69 -362.03,-395.25 -329.64,-664.3 -20.12,22.42 16.95,24.15 -45.68,22.93 -23.99,-0.46 -48.25,-0.13 -72.28,-0.13l-4356.08 -0.04c-273.22,-0.52 -543.28,215.26 -607.24,499.82 -31.04,138.14 -17.38,376.18 -17.38,535.19l-0.56 2800.32c-5.23,16.87 3.64,4.17 -9.47,15.07z"/>
   <path class="fil6" d="M17238.72 6484.18c-19.16,338.36 -52.94,702.9 -69.24,1038.12 -2.56,52.59 -1.05,37.78 -56.52,41.47 -124.85,8.29 -259.9,8.82 -382.28,21.54 -0.03,10.01 -5.22,132.62 -13.52,142.15 9.25,57.18 -63.79,799.7 -63.48,935.32 144.9,35.23 287.05,76.2 433.2,99.48l-56.32 892.95 1373.11 -0.91 -10.6 -826.7c494.96,-81.12 836.86,-305.66 892.9,-772.27 53.11,-442.16 -188.33,-908.72 -416.78,-1230.87 -109.39,-154.24 -191.97,-251.7 -307.98,-386.5l-137.23 -142.33c-25.86,-25.75 -54.97,-33.27 -80.74,-59.72l-188.46 -108.51c-130.35,-69.12 -268.49,-129.49 -411.09,-175.05 -40.64,-12.97 -75.9,-22.69 -116.13,-32.87 -30.39,-7.68 -87.97,-15.16 -116.75,-26.02 -18.81,-0.28 -120.46,-11.59 -138.82,-15.91 38.35,30.52 64.08,61.35 85.02,105.6 19.55,41.33 31.72,98.1 35.47,150.15 4.42,61.29 -3.64,121.73 -11.35,178.96 -3.93,29.25 -10.8,49.82 -15.89,78.41 -2.6,14.53 -1.35,8.08 11.73,22.15 129.79,139.57 11.73,501.03 -45.99,643.27 141.26,-0.15 288.78,-4.08 429.28,-0.17 90.14,2.51 79.83,88.27 80.01,132.61 0.33,79.99 -22.69,107.4 -102.49,107.06 -142.73,-0.61 -285.68,-0.25 -428.43,-0.04 -79.15,0.11 -119.37,-12.17 -118.99,-93.3 0.15,-32.57 -5.33,-72.72 6.56,-99.37 16.76,-37.57 39.29,-34.23 54.35,-49.65 -0.02,-0.04 -55.14,-66.53 -22.96,-76.76 1.36,-0.43 2.8,-1.34 4.46,-1.76 23.01,-5.8 -11.8,-0.88 9.01,-1.9 13.81,-0.67 4.59,-0.88 12.56,2.21 13.89,5.39 19.33,22.31 28.63,38.61l4.01 12.56c15.57,-19.87 57.7,-155.6 67.19,-193.06 30.38,-119.91 70.32,-324.98 -40.69,-410.03 -31.22,-23.93 -77.92,-0.51 -101.25,10.74 -9.52,4.59 -11.06,6.09 -19.66,11.96 -1.08,0.73 -4.11,2.84 -5.22,3.56l-48.65 34.82z"/>
   <path class="fil7" d="M2915.05 7070.96l102.46 506.52c7.13,39.12 30.06,131.26 27.14,167.97 -55.5,16.27 -112.9,16.76 -178.09,19.16 -228.24,8.4 -121.55,-10.88 -154.09,44.07 1.78,31.03 -0.83,60.64 -4.17,91.77 -3.02,28 -3.49,57.38 -19.91,71.61 -33.59,29.12 -394.92,0.77 -487.02,-32.71 -39.15,-14.24 -38.46,-26.46 -35.85,-74.49 6.86,-125.52 77.28,-411.64 108.01,-534.33l88.03 -340.34c-27.16,-8.18 -49.11,-22.85 -63.22,-42.83 -24.71,15.65 -58.02,27.79 -84.65,43.8 -25.77,15.48 -50.11,29.8 -76.09,45.6 -309.93,188.43 -639.88,443.36 -857.95,738.52 -8.41,11.38 -44.49,61.19 -51.57,66.38 -1.43,8.34 -21.04,36.73 -30.1,44.52 -10.4,26.49 -39.47,63.57 -54.15,91.45 -55.96,106.27 -99.81,181.38 -138.01,308.4 -51.05,169.7 -74.2,330.8 -57.86,521.83 54.41,635.79 435.47,682.84 473.44,716.9l133.83 30.7c182.39,30.54 280.46,14.41 455.26,0.51 23.66,-4.03 19.16,-4.93 24.42,14.76l30.99 132.29c12.98,55.73 31.86,117.44 44.41,176.15l419.37 -240.64c254.04,-136.66 501.11,-270.01 765.51,-388.83l346.28 -149.96c42.61,-17.56 78.71,-30.45 119.35,-47.22 28.5,-11.78 94.29,-39.16 119.25,-43.4l-18.52 -1.39c-76.56,-10.13 -189.61,16.8 -269.12,11.62 -39.54,-2.56 -67.01,-40.75 -49.43,-81.04 20.38,-46.71 60.25,-23.76 101.37,-39.67 -114.08,-34.5 -123.6,-52.48 -93.56,-135.19 -106.57,103.13 -301.39,197.07 -457.97,127.35 2.22,40.62 10.04,81.18 11.99,121.06 2.22,45.52 -40.23,44.56 -79.09,53.92 -39.38,9.48 -194.87,52.4 -221.17,47.12 -40.49,-63.07 -65.34,-317.79 -74.1,-409.17 -6.6,-68.6 -40.56,-410.22 -12.77,-456.64 58.19,-12.22 142.29,-16.17 206.73,-23.25 124.74,-13.7 94.48,-8.83 111.56,103.33 194.22,-44.88 396.77,-79.78 593.77,-117.8 139.6,-26.94 148.51,-37.72 261.62,55.64 68.57,56.63 120.98,117.79 183.51,177.02 25.88,-57.28 107.36,-285.45 136.7,-363.67 22.81,-60.83 45.73,-121.15 68.61,-184.03 28.59,-78.6 75.36,-87.22 170.21,-84.91l604.02 -36.93 46.51 -256.18c-60.18,21.75 -369.08,-74.71 -441.47,-96.2 -90.88,-26.98 -334.9,-103.61 -390.06,-147.79 -18.48,56.39 -155.14,320.23 -179.83,388.39 -5.48,-7.71 -3.67,-6.6 -7.49,-13.39 -58.77,-104.3 -50.07,-59.27 -66.77,-75.48 -44.43,-89.85 -82.96,-160.25 -135.65,-237.38 -55.83,-81.73 -106.28,-140.71 -169.73,-204.71 -49.79,-50.2 -76.22,-81.23 -134.83,-104.39 -11.48,-4.55 -18.97,-9.64 -30.18,-14.64 -94.98,-42.46 -252.42,-85.29 -354.28,-106.33 -26.96,45.46 -66.6,74.09 -117.64,103.06 -24.12,13.69 -47.82,25.79 -76.55,35.9 -26.33,9.27 -61.44,16.32 -81.45,27.62z"/>
   <path class="fil1" d="M18343.24 6235.92c25.77,26.45 54.88,33.98 80.74,59.72l137.23 142.33c116.01,134.8 198.59,232.25 307.98,386.5 228.45,322.15 469.89,788.72 416.78,1230.87 -56.03,466.61 -397.93,691.15 -892.9,772.27l10.6 826.7c169.47,8.11 358.24,0.67 529.86,0.67 177.36,0 354.77,-0.43 532.12,0.01 44.17,0.11 76.98,-0.22 107.6,-23.06 23.34,-17.4 46.36,-46.65 51.43,-82.94 11.14,-79.88 -8.18,-648.23 1.56,-796.74 0.5,-26.55 -25.46,-100.61 -25.44,-197.34 0.03,-95.99 25.61,-176.38 24.75,-199.61 -5.09,-194.67 0.02,-398.11 0.02,-594.09l0 -2371.94c0,-103.37 13.01,-188.64 -66.62,-228.66 -49.35,-24.8 -211.35,-14.66 -278.2,-14.66 -196.91,0 -393.82,0 -590.73,0 -155.13,0 -454.94,-6.24 -591.83,0.6 7.81,12.22 28.42,31.68 39.88,46.11 166.19,209.26 193.59,452.34 212.56,716.75 9.44,131.59 -10.2,255.56 -7.39,326.51z"/>
   <path class="fil3" d="M14059.58 2780.27c-32.4,269.05 132.78,519.61 329.64,664.3 190.45,139.99 378.04,217.58 613.95,265.03l81.7 13.64c1.58,0.29 9.43,2.02 11.31,2.6 7.28,2.23 7.45,2.63 10.94,4.75 29.98,-3.92 138.93,9.8 178.72,12.19 96.44,5.81 272.95,-3.71 367.35,-18.94 43.85,-7.07 89.62,23.67 138.83,49.24 30.19,15.69 493.83,254.54 515.92,259.92 -17.88,-46.83 -142.92,-265.13 -151.16,-295.25 -11.8,-10.27 -66.96,-118.02 -74.21,-138.7l115.44 -61.4c99.54,-56.3 226.52,-150.7 292.08,-235.6l38.11 -47.62c14.71,-19.41 24.31,-32.94 36.95,-53.28 22.15,-35.67 42.7,-73.24 59.82,-116.1 44.2,-110.69 49.43,-177.12 45.11,-302.8 -5.67,-150.21 -107.22,-331.58 -187.33,-412.08 -35.47,-35.65 -54.28,-61.35 -102.78,-100.1 -25.22,-20.12 -46,-38.91 -76.1,-59.34 -511.38,-347.01 -1259.42,-364.44 -1790.97,-56.38 -63.11,36.56 -100.23,65.11 -156.57,109.57 -90.28,71.25 -191.86,191.61 -239.6,301.88 -23.9,55.18 -59.86,147.76 -57.13,214.48z"/>
   <path class="fil4" d="M10160.39 10684.32l-2.13 1049.49 0.45 832.39c-1.15,35.7 -4.21,120.13 1.75,148.43 8.04,38.15 37.27,69.66 65.03,84.1 71.15,37.03 167.2,1.98 185.11,-86.78 5.46,-46.93 2.03,-120.85 2.31,-170.76 1.54,-281.53 -8.88,-2540.62 0.24,-2585.99 38.57,-7.77 1261.05,-0.25 1458.72,-2.07 13.78,-0.12 33.67,-2.82 44.87,4.59l-0.06 1074.72 0.28 701.38 -0.32 832.41c1.67,52.72 -7.25,134.32 12.62,174.38 47.83,96.51 181.59,98.3 230.27,2.31 22.96,-45.27 15.68,-119.11 13.93,-176.66l0.43 -832.56 -0.33 -701.14 0.4 -1077.6c80.56,0.12 189.96,10.32 258.35,-14.42 61.8,-22.35 114.15,-73.07 135.94,-134.4 57.93,-163.11 -60.21,-313.36 -195.19,-318.1 -80.94,4.51 -393.51,2.38 -487.71,0.71 -92.01,-1.61 -1420.63,-8.92 -1456.73,0.9 -33.26,6.64 -264.22,4.07 -328.99,2.45 -55.52,-1.38 -103.72,-18.66 -179.55,10.72 -100.11,38.8 -157.14,138.49 -145.91,247.29 4.99,48.42 23.33,64.9 33.54,100.32 -19.19,-9.62 -34.62,-25.49 -55.16,-37.66 -149.3,-88.4 -330.07,-58.34 -446.18,59.25 -214.15,216.9 -65.7,590.67 225.72,612.11 305.69,22.48 474.95,-283.72 362.59,-515.91 -10.73,-22.19 -23.94,-37.75 -30.91,-58.33 44.01,20.17 68.06,42.25 128.11,44.92 54.1,2.4 111.92,-0.64 166.65,0.21l1.87 729.33z"/>
   <path class="fil2" d="M19767.32 8996.94c-47.9,-49.26 -84.35,-112.39 -111.89,-176.56l-29.19 -68.12c-9.73,148.51 9.58,716.86 -1.56,796.74 -5.06,36.29 -28.09,65.54 -51.43,82.94 -30.62,22.84 -63.44,23.17 -107.6,23.06 -177.35,-0.44 -354.76,-0.01 -532.12,-0.01 -171.61,0 -360.39,7.44 -529.86,-0.67l-1373.11 0.91c-134.43,0.02 -1318.3,6.78 -1338.4,-3.18 -26.19,8.4 -200.54,3.38 -244.3,2.95 -449.43,0.94 -898.97,0 -1348.41,0 -94.45,0 -245.61,19.23 -304.15,-33.86 -36.18,-32.8 -38.44,-66.73 -38.38,-128.3l0 -2182.54c0,-447.82 3.87,-897.35 -0.09,-1344.93l-138.32 -72.67c4.61,114.71 0.57,237.75 0.57,353.38l0 3553.41c-0.09,293.57 223.22,252.66 453.3,252.66l5330.11 0c125.49,0 218.98,13.45 293.3,-58.6 80.22,-77.73 67.54,-152.6 67.54,-288.77l0 -622.29c0,-18.6 -4.76,-70.04 3.97,-85.54z"/>
   <path class="fil1" d="M15447.87 9654.98l106.35 -549.91c15.59,-7.29 342.06,-9.23 360.5,-2.52l4.02 -4.5c-31.93,-7.79 -372.73,0.27 -434.91,0.2l-432.9 2.34c-84.07,0 -134.59,13.47 -185.22,-35.75 -31.6,-30.72 -43.36,-111.41 -55.79,-160.97l-423.34 -1709.48c-1.67,-6.85 -2.96,-14.02 -4.8,-21.71l-7.81 -22.43c-5.14,6.87 -10.83,-8.39 -18.76,-18.92 -40.66,-53.97 -92.66,-136.27 -126.7,-193.66 -44.91,-75.76 -87.51,-156.94 -126.76,-238.39 -41.67,-86.48 -185.57,-425.02 -202.9,-524.23 19.04,-16.74 158.2,-64 181.19,-83.08 -14.12,-8.83 -59.61,-20.43 -81.97,-28.56 -28.11,-10.23 -54.66,-18.85 -82.86,-30.09 -28.77,-11.47 -54.51,-21.79 -79.94,-32.9 -25.13,-10.97 -52.56,-28.02 -78.45,-35.07 3.96,447.58 0.09,897.11 0.09,1344.93l0 2182.54c-0.07,61.57 2.2,95.5 38.38,128.3 58.54,53.08 209.7,33.86 304.15,33.86 449.44,0 898.98,0.94 1348.41,0z"/>
   <path class="fil5" d="M14373.99 7150.25l7.81 22.43c1.83,7.69 3.13,14.86 4.8,21.71l423.34 1709.48c12.43,49.56 24.19,130.25 55.79,160.97 50.63,49.22 101.15,35.75 185.22,35.75l432.9 -2.34c62.18,0.07 402.97,-7.99 434.91,-0.2 87.93,1.82 180.65,1.69 268.56,-0.38 79.51,-1.87 201.27,21.5 201.29,-64.61 0.01,-23.33 -17.27,-83.51 -23.61,-106.54 -14.63,-53.09 -77.92,-302.35 -78.24,-325.35 -3.02,-15.49 -13.43,-66.97 -23.24,-79.94 -57.4,-4.78 -125.02,-1.83 -184.29,-5.86 -98.94,-6.7 -447.22,-37.23 -478.77,-113.65 -19.2,-46.51 58.42,-77.65 94.65,-91.08 65.92,-24.48 18.4,5.54 77.3,-1.43 76.54,-9.05 415.41,-49.45 434.56,-59.43 3.29,-15.55 4.28,-14.75 -1.64,-28.61 -15.47,-5.79 -409.17,41.65 -452.53,51.22 -27.78,6.14 -7.51,10.23 -43.4,8.02 -70.86,-4.36 -237.54,-12.69 -264.62,-74.83 -32.7,-75.02 133.67,-122.8 190.9,-135.13 17.99,-3.88 64.99,0.76 96.65,-3.4l302.81 -36.67c16.45,-2.1 32.19,-3.9 48.5,-5.86 28.23,-3.38 31.88,1.69 39.62,-24.32 -17.39,-25.09 -25.19,-15.99 -55.23,-12.8 -20.77,2.21 -39.43,4.97 -60.61,7.5 -30.86,3.7 -328.88,35.97 -340.11,42.72l-16.61 21.24c-54.06,-4.93 -97.56,-4.19 -147.57,-19.23 -46.53,-13.99 -87.91,-45.52 -44.09,-91.35 76.52,-79.97 404.97,-131.8 523.19,-147.35 88.77,-11.68 131.58,-16.4 218.34,-33.51 31.6,-6.23 61.05,-1.26 49.85,-37.77 -15.81,-20.62 -133.88,20.59 -167.04,19.64 -7.58,-0.21 -8,-0.71 -10.73,-1.62 -5.35,-20.38 -15.23,-46.22 -13.19,-67.89 -48.67,-191.44 -86.38,-352.19 -132.42,-536.62 -34.4,-137.75 -60.69,-136.33 -199.69,-136.51 -109.17,-0.14 -215.97,3.19 -324.64,3.85 8.55,98.59 62.51,176.62 -12.56,255.7 -60.74,63.99 -166.56,46.31 -276.08,46.31 -199.44,0 -266.5,7.13 -311.15,-173.61 -9.18,-37.16 -25.82,-87.89 -31.55,-128.5 -95.09,0.3 -189.12,2.24 -284.1,2.24 -47.96,-0.01 -90.9,-7.14 -115.01,24.86 -26.39,35.02 -0.72,75.66 1.72,112.73z"/>
   <path class="fil8" d="M4849.8 4330.72c92.13,-11.3 136.06,-14.63 216.81,21.79 241.18,108.75 259.39,486.17 -26.72,594.88 -66.7,25.35 -137.51,26.09 -207.96,4.98 -114.12,-34.2 -203.91,-133.81 -223.22,-267.74 -52.22,15.33 -77.36,31.26 -141.22,36.65 -144.71,12.23 -288.56,-48.59 -368.57,-154.11 -279.39,-368.49 104.14,-814.5 481.87,-662.39 150.48,60.6 283.44,209.29 269.01,425.92zm-850.34 801.51c-4.49,21.6 -135.81,260.36 -163.41,315.65 -27.01,54.11 -153.46,286.43 -164.62,316.8 10.77,-4.94 3.37,-1.26 10.75,-5.49 3.77,-2.17 8.38,-5.19 11.62,-7.37l739.5 -495.87c11.9,-3.3 101.69,8.19 124.34,9.64 247.81,15.81 503.32,-18.83 727.87,-108.69 261.32,-104.57 495.47,-282.95 584.91,-542.59 55.94,-162.45 34.04,-328 -33.9,-467.72 -180.06,-370.3 -700.04,-570.21 -1120.95,-572.48 -311.78,-1.69 -640.43,64.19 -890.46,234.88 -241.18,164.65 -431.51,412.49 -367.13,732.24 26.74,132.83 107.64,266.54 202.17,361.07 13.98,13.99 22.35,19.04 36.12,31.56 14.83,13.48 22.59,21.41 38.15,33.96 136.12,109.68 231.92,140.07 265.04,164.41z"/>
   <path class="fil9" d="M1522.49 12534.12c121.68,-16.62 624.31,-46.54 762.31,-51.73 128.31,-4.82 256.22,-15.48 387.37,-20.48 128.91,-4.9 260.67,-12.97 388.13,-18.01 128.38,-5.07 262.64,-7.78 391.49,-16.43 63.26,-4.23 131.04,-6.2 194.87,-8.04 69.44,-2.02 133.88,-6.29 203.04,-6.87 127.52,-1.07 261.47,-13.78 392.39,-13.54l394.6 -12.67c129.32,-9.94 266.01,-2.94 394.36,-11.33 99.71,-6.52 289.06,-8.27 397.02,-9.72 61.87,-0.83 135.05,-1.46 198.07,-5.03 62.17,-3.52 133.57,-0.66 197.6,-4.86 132.66,-8.66 269.25,-0.32 401.59,-8.85 61.26,-3.94 134.53,-2.78 199.35,-3.8l396.61 -9.19c66.74,-0.28 136.36,0.91 202.92,-2.44 65.56,-3.29 134.51,-4.25 198.42,-4.22 62.45,0.03 141.04,1.22 202.38,-2.87 90.86,-6.06 299.02,-5.56 400.78,-6.23 -16.33,-63.81 -30.48,-74.76 -30.54,-168.93 -0.02,-34.49 3.3,-62.19 9.38,-91.5l15.34 -58.7c8.69,-21.43 6.04,-8.44 6.92,-7.66l-6279.87 0 -24.52 543.12z"/>
   <path class="fil6" d="M15118.59 7278.71c-223.85,0 -254.73,21.98 -313.35,-268.29l563.61 -0.02c5.48,84.17 60.41,160.99 0,230.01 -48.17,55.03 -158.76,38.3 -250.27,38.3zm-438.62 -1443.71c-36.39,14.82 -569.92,250.31 -599.9,256.97 -22.99,19.08 -162.15,66.34 -181.19,83.08 17.33,99.22 161.23,437.76 202.9,524.23 39.25,81.45 81.86,162.63 126.76,238.39 34.03,57.39 86.03,139.69 126.7,193.66 7.93,10.53 13.62,25.79 18.76,18.92 -2.44,-37.07 -28.11,-77.71 -1.72,-112.73 24.11,-32 67.05,-24.87 115.01,-24.86 94.98,0 189.01,-1.94 284.1,-2.24 5.72,40.61 22.36,91.34 31.55,128.5 44.65,180.74 111.71,173.61 311.15,173.61 109.51,0 215.34,17.68 276.08,-46.31 75.07,-79.08 21.12,-157.12 12.56,-255.7 108.67,-0.65 215.47,-3.99 324.64,-3.85 139.01,0.18 165.29,-1.24 199.69,136.51 46.04,184.43 83.75,345.18 132.42,536.62 18.76,-0.71 106.12,-28.23 132.6,-35.34 59.66,-16.03 88.41,-20.48 153.56,-23.91l139.51 -598.9c-53.05,0 -73.66,3.73 -110.25,-19.86 -89.3,-57.58 -54.39,-220.83 51.46,-228.14l6.77 -130.86c3.43,-40.73 9.41,-78.74 11.83,-117.09 11.19,-177.69 88.82,-474.78 197.85,-600.88 -128.21,22.06 -215.23,44.49 -332.85,87.75 -244.72,89.99 -748.2,322.5 -987.11,269.7 4.11,18.6 12.18,37.5 17.02,58.98 18.41,81.8 106.94,403.06 -38.74,390.03 -124.59,-11.13 -69.03,-248.77 -48.32,-341.2 4.8,-21.41 10.44,-39.65 16.45,-60.49 5.25,-18.14 12.6,-39.81 16.18,-56.38 -61.24,-16.59 -121.07,-52.59 -168.73,-83.98 -108.04,-71.18 -315.98,-275.3 -380.8,-377.01l-55.92 22.77z"/>
   <path class="fil1" d="M14679.97 5835l55.92 -22.77c64.82,101.7 272.75,305.82 380.8,377.01 47.66,31.39 107.49,67.39 168.73,83.98 -3.58,16.56 -10.93,38.23 -16.18,56.38 -6.01,20.84 -11.66,39.07 -16.45,60.49 -20.71,92.43 -76.27,330.08 48.32,341.2 145.68,13.03 57.15,-308.23 38.74,-390.03 -4.84,-21.48 -12.91,-40.39 -17.02,-58.98 238.91,52.8 742.39,-179.71 987.11,-269.7 117.62,-43.26 204.64,-65.69 332.85,-87.75 -109.03,126.1 -186.65,423.19 -197.85,600.88 -2.42,38.35 -8.41,76.36 -11.83,117.09l-6.77 130.86c-105.85,7.31 -140.76,170.56 -51.46,228.14 36.6,23.59 57.2,19.86 110.25,19.86 8.13,-11.31 0.5,-3.16 11.87,-10.86 9.67,-6.55 19.9,-7.88 37.87,-24.86 10.43,-9.86 26.65,-31.82 32.4,-52.62 21.78,-78.83 -24.1,-101.09 -32.98,-132.57 -10.96,-13.36 -36.42,-24.27 -56.36,-27.08 5.66,-180.87 26.06,-344.23 63.81,-496.06 30.34,-122.04 72.38,-244.2 158.51,-330.31 7.08,-7.08 10.84,-10.97 17.93,-18.09l19.27 -16.86c-15.6,14.8 -2.49,9.09 4.52,13.83 7.51,12.73 6.31,9.73 22.94,5.62l53.93 -12.44c8.77,-3.04 7.6,-3.14 16.03,-6.27l44.88 -14.23c93.54,-28.24 228.88,-125.15 268.09,-211.97 14.33,12.27 -122.83,78.12 -142.52,85.16 -8.85,3.16 -6.33,2.38 -16.02,6.25l-52.9 20.25c-14.82,3.29 -21.49,4.45 -36.56,8.28 -44.19,11.2 -86.21,16.42 -131.01,15.64l-26.14 -3.31c-58.42,-16.19 -102.2,-28.61 -142.55,-66.97 -65.19,-61.99 -105.55,-138.99 -122.08,-256.23 -12.77,-90.52 -8.56,-265.05 10.86,-348.64l-1985.73 -0.21c7.66,24.93 23.03,52.35 32.41,76.83 33.07,86.33 54.88,156.11 77.79,246.43 14.17,55.87 30.77,212.17 39.57,284.53 11.79,96.83 20,41.76 27.01,80.11z"/>
   <path class="fil10" d="M19190.63 751.44c-0.21,-107.96 -2.73,-219.73 -0.17,-327.26 3.12,-131.23 146.1,-110.19 212.04,-110.19 74,0 203.28,-18.73 203.62,119.3 0.12,48.67 -3.62,290.38 1.83,317.82 105.08,-0.56 217.94,-3.13 322.33,0.24 134.94,4.38 115.06,138.62 115.06,209.68 0,51.66 6.42,110.23 -15.33,149.34 -18.59,33.43 -51.92,56.7 -104.27,58.08 -104.77,2.75 -214.51,0.59 -319.78,0.59 0,107.55 2.04,217.04 0.14,324.33 -2.36,133.47 -146.06,112.46 -208.13,112.46 -71.75,0 -206.69,18.19 -207.53,-117.01 -0.67,-106.67 0.14,-213.68 0.14,-320.4 -102.43,0 -229.55,6.73 -328.93,-0.36 -129.76,-9.26 -110.71,-143.69 -110.71,-211.54 0,-65.71 -17.24,-201.45 115.23,-205.18 106.2,-3.01 217.64,0.02 324.42,0.09zm-703.51 164.51c-0.03,188.06 12.78,292.3 99.99,472.61 38.15,78.9 87.82,148.57 141.41,210.43 83.35,96.2 216.17,191.96 348.43,246.98 629.11,261.74 1328.6,-197.54 1328.98,-889.49 0.21,-388.24 -237.88,-721.36 -552.2,-866.09 -335.9,-154.65 -717.07,-107.44 -1003.51,115.52 -202.32,157.49 -359.04,436 -363.11,710.03z"/>
   <path class="fil11" d="M7772.5 9850.16l-10.7 14.86c-3.77,7.23 -4.86,11.93 -8.04,19.22l-225.96 518.03c-58.42,142.84 -131.02,287.72 -182.34,417.27 -16.57,41.83 -39.36,97.44 -60.29,138.7 26.45,6.2 218.15,64.25 230.39,71.31 124.25,40.38 258.1,79.98 387.96,113.73 86.12,22.4 146.6,48.92 204.63,15.31 40.6,-23.5 100.27,-88.54 127.8,-124.92l155.65 -218.55c57.29,-86.53 136.71,-223.4 188.85,-316.17 9.25,-16.43 33.26,-69.05 46.03,-77.24 7.35,-23.07 29.12,-58.87 42.57,-82.12l167.91 -319.2c29.87,-59.38 103.62,-191.76 120.86,-239.85 43.25,-120.66 79.24,-254.87 102.44,-384.22 35.22,-196.35 38.9,-256.94 -147.6,-303.89 -119.79,-30.15 -305.61,-46.25 -402.4,46.52 -70.52,67.59 -109.62,119.15 -162.19,203.07 -69.62,111.19 -14.1,39.33 -112.65,126.44l-365.53 301.93c-11.92,9.45 -22.85,18.4 -32.08,26.54 -16.03,14.18 -49.39,44.23 -65.33,53.2z"/>
   <path class="fil2" d="M13619.03 5188.84c72.18,0.39 312.77,58.39 388.27,80.84 51.02,15.18 116.82,44.67 169.23,64.98l178.09 66.34c-15.33,-87.55 -53.97,-231.25 -29.24,-321.99 27.93,-102.52 113.71,-50.2 161.76,39.82 2.72,5.1 4.49,9.31 7.6,15.05l8.46 13.2 1985.73 0.21 28.1 -161.43c36.41,0.07 28.09,-9.4 53.96,-25.15 24.35,-14.81 56.09,-4.92 61.04,-19.7 8.83,-26.36 -37.38,-21.78 -53.64,-16.33 -21.81,7.28 -32.27,22.27 -52.96,29.76l5.19 -26.14c-4.94,-26.98 -18.56,-64.25 -24.49,-92.08 -7.72,-36.33 -12.74,-67.25 -16.17,-101.62 -8.67,-87.19 0.07,-135.58 17.72,-213.57 -887.76,6.12 -1778.58,-5.13 -2665.26,-0.02 -129.17,0.74 -223.01,91.46 -223.39,218.7 -0.45,149.68 0.51,299.44 0,449.13z"/>
   <path class="fil11" d="M1651.55 10926.59c78.46,0.55 136.75,-41.16 199.02,-68.96 80.25,-35.83 508.72,-254.73 544.73,-263.26 -3.97,-17.49 -34.21,-66.99 -44.54,-85.15 -79.59,-139.79 -171.91,-380.99 -214.7,-538.42 -3.64,-13.38 -21.2,-84.17 -25.71,-91.65 -12.55,-58.72 -31.43,-120.42 -44.41,-176.15l-30.99 -132.29c-5.26,-19.69 -0.76,-18.8 -24.42,-14.76 17.66,121.87 20.67,294.33 -10.31,409.87 -36.34,135.52 -121.97,198.43 -247.43,103.91 -118.86,-89.55 -202.91,-256.97 -269.9,-392.73 -10.22,-20.71 -61.64,-138.41 -61.46,-152.25 -37.97,-34.06 -419.03,-81.11 -473.44,-716.9 -16.34,-191.04 6.81,-352.13 57.86,-521.83 38.2,-127.02 82.06,-202.13 138.01,-308.4 14.69,-27.88 43.76,-64.96 54.15,-91.45 -81.29,16.49 -164.38,37.78 -246.73,56.44 -42.57,9.65 -81.51,18.99 -124.94,28.81 -36.67,8.29 -88.77,18.28 -121.91,31.02 -167.89,64.56 -243.08,234.55 -194.93,397.43 28.46,96.28 119.81,340.09 158.98,450.23l640.02 1808.52c32.29,90.14 45.97,129.67 114.83,191.78 56.81,51.24 127.5,81.98 228.21,76.2z"/>
   <path class="fil10" d="M5034.38 8169.32c182.84,-26.63 218.69,256.42 35.9,279.82 -85.28,10.93 -149.29,-48.99 -159.43,-120.71 -12.35,-87.58 48.69,-148.21 123.52,-159.12zm20.09 -396.85l-604.02 36.93 -390.95 1049.98c-5.8,13.14 -0.83,10.36 -19.3,16.45l-10.51 2.94 1565.15 -91.33c34.75,-1.87 70.14,-8.97 98.65,6.51 14.55,-11.23 115.46,-294.69 121.9,-311.6 38.8,-101.93 74.45,-211.79 117.64,-313.9 36.03,-99.06 73.66,-195.83 110.51,-296.5 66.45,-181.51 -71.79,-153.57 -211.77,-143.62l-579.82 33.69c-64.29,3.99 -131.43,10.43 -197.47,10.45z"/>
   <path class="fil0" d="M10417.97 11032.61l1498.71 -0.18 0.06 -1074.72 -1501.13 -0.09c0.28,65.58 -5.69,1041.3 2.36,1074.98z"/>
   <path class="fil2" d="M18651.61 4717.11c74.9,-10.61 134.66,46.49 144.35,110.02 11.82,77.51 -43.09,144.39 -110.34,153.09 -179.44,23.22 -218.06,-237.05 -34.01,-263.12zm424.02 2.56c178.24,-44.06 224.83,223.99 64.45,258.64 -179.43,38.77 -232.99,-216.97 -64.45,-258.64zm-887.26 -0.01c83.79,-19.24 148.61,34.85 163.02,97.37 17.9,77.65 -31.89,145.06 -95.57,160.91 -179.77,44.76 -231.56,-220.59 -67.45,-258.28zm-90.18 426.88c136.9,-6.84 436.71,-0.6 591.83,-0.6 196.91,0 393.82,0 590.73,0 66.85,0 228.85,-10.13 278.2,14.66 79.62,40.02 66.62,125.29 66.62,228.66l0 2371.94c0,195.98 -5.12,399.41 -0.02,594.09 10.67,-11.49 21.7,-50.8 28.72,-67.12 10,-23.25 20.4,-45.88 32.49,-66.78 23.73,-41.04 47.71,-81.12 81.2,-113.05 -10.42,-15.96 -4.61,-353.26 -4.61,-369.68l0 -2633.48c0,-122.49 4.38,-253.01 -0.08,-374.48 -3.81,-104 -77.55,-184.63 -169.76,-204.62 -57.92,-12.55 -640.82,-4.94 -750.17,-4.94l-1316.75 0c-58.23,0 -134.49,-4.18 -190.44,1.17 8.59,16.88 11.29,12.48 25.87,25.97 43.59,40.35 38.87,51.27 81.93,62.38 151.06,38.94 226.29,169.07 258.54,315.18 101.66,19.29 236.01,87.44 314.41,149.02l81.28 71.68z"/>
   <path class="fil12" d="M16507.68 4521.04c-17.66,77.99 -26.4,126.38 -17.72,213.57 3.43,34.38 8.44,65.29 16.17,101.62 5.92,27.82 19.55,65.09 24.49,92.08 9.33,-8.62 12.45,-22.32 18.75,-33.71 37.41,-67.72 141.16,-137.02 206.13,-164.87 3.09,32.95 25.15,102.69 38.15,134.56 5.57,13.68 11.96,23.85 17.1,37.97 -0.91,0.74 -2.25,1.57 -2.91,1.98l-11.83 7.15c-8.65,5.28 -25.83,17.86 -13.46,31.43 16.72,10.15 25.68,-1.7 45.09,-6.78 7.78,6.71 35.52,51.45 65.36,81.24 63.94,63.88 209.37,124.84 311.75,133.09l-16.67 73.15c0.83,-0.69 2.02,-1.58 2.9,-2.36 0.84,-0.74 1.78,-1.66 2.6,-2.44 36.2,-35.2 19.77,-38.74 68.8,-57.59 120.54,-46.35 252.97,7.81 268.95,128.93 11.56,87.62 -24.77,172.84 -67.48,216.93 -50.51,52.14 -108.21,79.07 -207.29,68.41l13.07 152.11c55.33,-0.04 100.91,-18.65 144.32,-40.14 45.55,-22.53 71.34,-44.33 108.86,-75.94l-12 282.07c28.78,10.86 86.36,18.34 116.75,26.02 40.23,10.19 75.49,19.9 116.13,32.87 142.61,45.56 280.74,105.93 411.09,175.05l188.46 108.51c-2.81,-70.95 16.83,-194.92 7.39,-326.51 -18.97,-264.41 -46.38,-507.49 -212.56,-716.75 -11.46,-14.43 -32.07,-33.89 -39.88,-46.11l-81.28 -71.68c-78.4,-61.58 -212.75,-129.72 -314.41,-149.02 -32.25,-146.11 -107.48,-276.24 -258.54,-315.18 -43.06,-11.1 -38.34,-22.02 -81.93,-62.38 -14.57,-13.49 -17.28,-9.08 -25.87,-25.97l-85.46 -61.15c-98.33,-66.31 -208.57,-113.32 -330.77,-128.44 -129.03,-15.99 -271.49,3.23 -356.18,93.66 -27.33,29.17 -35.45,58.34 -56.07,94.65z"/>
   <path class="fil13" d="M5933.02 8168.45c-43.18,102.11 -78.84,211.97 -117.64,313.9 -6.44,16.92 -107.35,300.38 -121.9,311.6 15.07,15.38 30.08,33.54 21.37,65.91 -5.83,21.75 -25.56,36.22 -49.57,39.54 -44.38,6.13 -138.44,1.59 -173.15,11.12 12.11,8.48 360.27,102.52 406.72,115.8 325.37,93.11 678.71,202.23 1006.77,305.58 65.57,20.65 138.42,49.08 205.25,64.11 41.13,-176.39 62.62,-426.75 62.19,-615.86 -0.46,-198.53 -42.88,-409.65 -142.69,-538.23 -112.11,-144.44 -266.01,-175.97 -511.23,-169.48 -150.01,3.98 -304.75,29.83 -447.14,62.12 -38.77,8.8 -100.7,29.68 -138.99,33.89z"/>
   <path class="fil2" d="M10410.59 12711.94c18.19,-18.33 5.22,-112.83 9.17,-145.57l1496.87 -0.15 0.32 -832.41 -1498.38 -0.14 -0.61 -701.06c-8.06,-33.68 -2.09,-1009.4 -2.36,-1074.98l1501.13 0.09c-11.2,-7.4 -31.09,-4.71 -44.87,-4.59 -197.67,1.81 -1420.14,-5.7 -1458.72,2.07 -9.13,45.37 1.29,2304.47 -0.24,2585.99 -0.28,49.91 3.15,123.83 -2.31,170.76z"/>
   <path class="fil5" d="M20225.43 8239.21c-0.18,-123.48 103.67,-111.49 125.55,-120.49 19.92,-8.2 24.23,-22.35 59.26,-16.5 40.83,6.83 57.49,48.48 73.29,88.42 27.52,69.6 26.07,122.49 26.07,192.86 0.01,133.76 -88.97,333.77 -162.97,448.24 -47.72,73.82 -124.66,216.42 -195.24,160.3 -12.14,-9.66 -7.36,-11.44 -22.38,-18.48 -26.42,-12.36 -81.31,-29.06 -81.64,-103.05 -0.18,-40.12 51.19,-144.66 67.47,-162.53 58.53,-64.28 119.58,-27.51 157.97,-7.73 15.68,-40.45 40.3,-81.47 58.59,-127.41 19.03,-47.78 31.76,-93.25 40.65,-144.25 -41.71,10.07 -73.49,5.67 -104.97,-16.64 -52.3,-37.03 -41.64,-109.27 -41.65,-172.74zm-457.47 -130.86c-33.49,31.93 -57.47,72.01 -81.2,113.05 -12.09,20.91 -22.49,43.54 -32.49,66.78 -7.02,16.32 -18.04,55.62 -28.72,67.12 0.86,23.24 -24.72,103.62 -24.75,199.61 -0.02,96.73 25.93,170.78 25.44,197.34l29.19 68.12c27.54,64.18 63.99,127.3 111.89,176.56 16.63,32.45 99.52,96.1 138.93,122.93 46.81,31.86 115.61,64.98 178.54,83.28 215.65,62.72 447.13,14.62 614.93,-117.62 155.13,-122.29 255.3,-310.91 258.48,-530.83 3.99,-278.06 -170.94,-525.99 -421.14,-629.47 -203.28,-84.06 -443.54,-63.13 -627.72,58.7 -39.64,26.21 -124.77,90.82 -141.37,124.43z"/>
   <path class="fil8" d="M11114.38 6155.88c0,-81.09 73.03,-69.87 144.15,-69.87 53.41,0 405.7,-3.68 427.62,3.2 62.98,19.78 40.71,98.65 46.88,164.81 43.94,-26.1 133.75,-102.77 172.6,-122.98l0.12 348.27c-20.28,-3.85 -147.57,-109.07 -173.78,-121.6 -0.23,127.58 15.38,167.91 -103.68,167.91l-446.43 0c-38.75,0 -67.49,-29.94 -67.49,-67.61l0 -302.12zm-281.96 135.28c-0.23,214.18 77.47,373.35 191.67,486.94 54.54,54.24 111.02,102.39 186.45,137.89 291.39,137.16 634.77,62.81 831.49,-188.51 127.37,-162.73 178.08,-375.78 125.94,-588.25 -15.14,-61.73 -42.23,-129.08 -71.89,-176.12 -17.97,-28.48 -32.34,-50.78 -51.19,-75.18 -19.99,-25.86 -39.12,-44.5 -60.43,-65.69 -294.62,-292.75 -782.39,-249.05 -1025.98,87.7 -69.03,95.43 -125.91,233.37 -126.07,381.23z"/>
   <path class="fil10" d="M7515.56 11029.56c-12.23,-7.06 -203.93,-65.12 -230.39,-71.31l-76.08 175.83c-160.92,-40.46 -327.08,-88.39 -491.01,-131.06l-985.33 -254.78c-161.33,-42.19 -340.98,-79.09 -498.6,-121.22 10.08,63.69 9.12,142.17 17.19,209.38 8.38,69.67 14.12,141.39 22.74,208.46 10.87,84.67 8.12,124.13 68.43,161.37 46.17,28.52 103.44,50.72 162.25,67.69 341.17,98.39 813.58,150.08 1183.07,186.78 69.13,6.86 141.76,16.91 209.9,20.59 145.64,7.87 475.3,-42.64 593.79,-96.01 96.48,-43.46 55.6,-231.24 30.65,-311.57 -5.4,-17.38 -13.65,-32.38 -6.64,-44.15z"/>
   <polygon class="fil1" points="11916.96,11733.81 11916.68,11032.43 10417.97,11032.61 10418.58,11733.67 "/>
   <path class="fil3" d="M15918.74 9098.05l-4.02 4.5c-2.14,20.85 -147.38,362.86 -168.52,413.5 -13.37,32.04 -49.44,108.27 -54.03,135.98 20.1,9.97 1203.97,3.2 1338.4,3.18l56.32 -892.95c-146.15,-23.28 -288.31,-64.25 -433.2,-99.48 -125.2,-20.29 -244.41,-35.83 -366.94,-61.6 0.32,22.99 63.61,272.25 78.24,325.35 6.34,23.03 23.62,83.22 23.61,106.54 -0.02,86.11 -121.78,62.74 -201.29,64.61 -87.91,2.07 -180.63,2.2 -268.56,0.38z"/>
   <path class="fil10" d="M16534.28 6800.73c8.88,31.48 54.76,53.75 32.98,132.57 -5.75,20.8 -21.97,42.76 -32.4,52.62 -17.97,16.98 -28.2,18.31 -37.87,24.86 -11.37,7.7 -3.73,-0.45 -11.87,10.86l-139.51 598.9 189.41 50.28c31.29,9.7 59.93,18.81 92.98,28.48 30.59,8.96 58.51,20.72 89.15,28.17 8.31,-9.54 13.49,-132.14 13.52,-142.15 122.38,-12.72 257.43,-13.25 382.28,-21.54 55.47,-3.69 53.96,11.12 56.52,-41.47 16.3,-335.23 50.08,-699.76 69.24,-1038.12 -20.28,12.66 -98.08,91.18 -110.66,107.38 -48.7,62.67 -75.82,90.31 -125.97,162.84 -8.61,12.45 -22.72,26.15 -24.07,39.05 25.91,0.01 56.03,-2.8 76.62,5.66 6.54,17.24 4.65,16.95 0.01,34.77 -26.81,6.04 -165.8,6.03 -194.1,0l1.62 -34.75c16.91,-6.9 36.98,-5.69 58.62,-5.7 9.92,-11.89 25.93,-38.57 35.7,-53.4 54.52,-82.78 127.33,-168.56 195.56,-237.18l90.31 -85.28 23.86 -363.22c-1.08,0.6 -71.15,61.29 -128.51,96.02 -85.54,51.79 -201.07,112.32 -294.1,152.4 -44.73,19.27 -123.25,65.71 -152.06,50.24l16.61 -281.61c-3.15,19.75 -16.93,64.28 -23.13,90.82l-150.76 638.52z"/>
   <path class="fil3" d="M783.28 10895.61c22.35,-20.53 40.82,-8.17 103.36,-13.72 68.18,-6.04 236.22,-39.17 275.97,-77.4 -6.77,-16.21 -17.05,-28.48 -26.11,-46.19 -17.98,-35.18 -44.99,-119.54 -59.91,-160.9l-76.25 -214.56c-54.93,21.82 -80.54,41.54 -153.97,47.79 -63.28,5.39 -122.4,-5.37 -175.3,-27.8 -275.48,-116.76 -283.01,-497.72 -55.43,-635.53 76.44,-46.29 78.38,-36.38 145.68,-55.46l-151.75 -429.44c-348.29,81.5 -655.49,443.19 -603.87,880.55 25.58,216.7 132.86,408.85 299.47,542.92 47.79,38.46 113.8,80.83 173.4,106.33 88.43,37.85 193.04,70.42 300.12,71.83 6.62,6.82 7.31,-10.21 4.59,11.57z"/>
   <path class="fil7" d="M11211.31 9484.46l651.43 0.78c-0.18,-260.52 0,-521.04 0,-781.57 0,-145.65 21.16,-331.17 -44.42,-438.16 -62.46,-101.93 -117.44,-108.13 -156.15,-139.05l-0.04 -189.28 -250.22 -0.02 -0.18 192.84c-84.32,30.72 -158.12,111.49 -186.71,202.23 -24.18,76.71 -13.8,280.34 -13.8,375.95 0,258.54 -1.99,517.85 0.1,776.28z"/>
   <path class="fil14" d="M13619.03 5188.84c-229.89,-35.06 -56.29,153.94 -50.67,164.28 -78.65,-13.62 -290.73,-69.96 -227.43,82.02 32.45,77.92 155.23,173.8 197.18,181.9 -40.04,-2.5 -213.94,-64.8 -192.59,56.17 10.04,56.86 106.06,115.55 149.65,144.52l123.35 74.95 138.32 72.67c25.89,7.05 53.33,24.1 78.45,35.07 25.44,11.1 51.17,21.43 79.94,32.9 28.2,11.24 54.75,19.86 82.86,30.09 22.35,8.13 67.85,19.73 81.97,28.56 29.98,-6.66 563.51,-242.15 599.9,-256.97 -7.01,-38.35 -15.22,16.72 -27.01,-80.11 -8.8,-72.36 -25.4,-228.66 -39.57,-284.53 -22.91,-90.32 -44.72,-160.1 -77.79,-246.43 -9.38,-24.48 -24.75,-51.9 -32.41,-76.83l-8.46 -13.2c-3.12,-5.73 -4.88,-9.94 -7.6,-15.05 -48.04,-90.02 -133.82,-142.34 -161.76,-39.82 -24.73,90.74 13.91,234.44 29.24,321.99l-178.09 -66.34c-52.41,-20.31 -118.21,-49.8 -169.23,-64.98 -75.49,-22.45 -316.09,-80.45 -388.27,-80.84z"/>
   <path class="fil14" d="M16530.61 4928.31l-5.19 26.14c20.7,-7.49 31.15,-22.48 52.96,-29.76 16.25,-5.45 62.46,-10.03 53.64,16.33 -4.95,14.78 -36.69,4.9 -61.04,19.7 -25.87,15.75 -17.55,25.22 -53.96,25.15l-28.1 161.43c-19.43,83.59 -23.64,258.12 -10.86,348.64 16.53,117.24 56.88,194.24 122.08,256.23 40.35,38.36 84.13,50.78 142.55,66.97l26.14 3.31c44.8,0.78 86.82,-4.43 131.01,-15.64 15.07,-3.82 21.75,-4.98 36.56,-8.28l52.9 -20.25c9.69,-3.88 7.17,-3.09 16.02,-6.25 19.69,-7.04 156.85,-72.9 142.52,-85.16 -39.2,86.82 -174.55,183.72 -268.09,211.97l-44.88 14.23c-8.43,3.13 -7.26,3.23 -16.03,6.27l-53.93 12.44c-16.63,4.11 -15.43,7.1 -22.94,-5.62 -9.6,13.28 -5.05,10.52 -7.64,27.77 -1.89,12.61 -3.9,18.59 -6.45,30.57l5.91 3.46c18.07,14.93 10.34,29.92 8.41,64.09 -4.72,83.2 -7.73,186.57 -15.94,263.77 76.54,-19.26 448.57,-203.38 515.46,-287.05 9.67,-12.1 1.16,-4.4 13.16,-13.54 18.24,-13.89 5.04,8.95 15.8,-13.85l8.1 -118.49c6.19,-36.78 -7.71,-114.48 -9.15,-155.43l-13.07 -152.11c99.08,10.66 156.78,-16.27 207.29,-68.41 42.71,-44.09 79.04,-129.3 67.48,-216.93 -15.98,-121.12 -148.41,-175.28 -268.95,-128.93 -49.03,18.85 -32.6,22.39 -68.8,57.59 -0.82,0.78 -1.76,1.7 -2.6,2.44 -0.87,0.78 -2.07,1.68 -2.9,2.36l16.67 -73.15c-102.38,-8.25 -247.8,-69.22 -311.75,-133.09 -29.83,-29.79 -57.58,-74.53 -65.36,-81.24 -19.41,5.08 -28.38,16.94 -45.09,6.78 -12.38,-13.57 4.81,-26.14 13.46,-31.43l11.83 -7.15c0.65,-0.41 2,-1.24 2.91,-1.98 -5.15,-14.12 -11.54,-24.29 -17.1,-37.97 -13.01,-31.88 -35.06,-101.61 -38.15,-134.56 -64.97,27.86 -168.72,97.15 -206.13,164.87 -6.3,11.39 -9.43,25.09 -18.75,33.71z"/>
   <path class="fil3" d="M19190.63 751.44c-106.78,-0.07 -218.22,-3.09 -324.42,-0.09 -132.46,3.73 -115.23,139.47 -115.23,205.18 0,67.85 -19.05,202.28 110.71,211.54 99.38,7.09 226.5,0.36 328.93,0.36 0,106.72 -0.82,213.72 -0.14,320.4 0.84,135.19 135.78,117.01 207.53,117.01 62.08,0 205.77,21.01 208.13,-112.46 1.9,-107.29 -0.14,-216.78 -0.14,-324.33 105.27,0 215.01,2.17 319.78,-0.59 52.34,-1.38 85.68,-24.65 104.27,-58.08 21.75,-39.11 15.33,-97.68 15.33,-149.34 0,-71.06 19.88,-205.3 -115.06,-209.68 -104.39,-3.37 -217.25,-0.81 -322.33,-0.24 -5.46,-27.45 -1.71,-269.15 -1.83,-317.82 -0.34,-138.03 -129.62,-119.3 -203.62,-119.3 -65.94,0 -208.93,-21.04 -212.04,110.19 -2.56,107.52 -0.04,219.3 0.17,327.26z"/>
   <path class="fil14" d="M16059.46 7679.8c-2.03,21.67 7.85,47.51 13.19,67.89 2.73,0.92 3.15,1.41 10.73,1.62 33.16,0.95 151.23,-40.25 167.04,-19.64 11.2,36.51 -18.24,31.54 -49.85,37.77 -86.76,17.12 -129.57,21.83 -218.34,33.51 -118.22,15.55 -446.67,67.38 -523.19,147.35 -43.82,45.82 -2.44,77.36 44.09,91.35 50.01,15.04 93.51,14.3 147.57,19.23l16.61 -21.24c11.23,-6.75 309.25,-39.02 340.11,-42.72 21.18,-2.53 39.83,-5.29 60.61,-7.5 30.03,-3.19 37.83,-12.3 55.23,12.8 -7.75,26.01 -11.39,20.94 -39.62,24.32 -16.31,1.96 -32.04,3.76 -48.5,5.86l-302.81 36.67c-31.66,4.17 -78.66,-0.48 -96.65,3.4 -57.23,12.33 -223.59,60.11 -190.9,135.13 27.08,62.14 193.76,70.46 264.62,74.83 35.89,2.21 15.62,-1.88 43.4,-8.02 43.36,-9.57 437.06,-57.01 452.53,-51.22 5.91,13.86 4.93,13.06 1.64,28.61 -19.15,9.98 -358.02,50.38 -434.56,59.43 -58.91,6.96 -11.38,-23.05 -77.3,1.43 -36.23,13.44 -113.86,44.57 -94.65,91.08 31.56,76.42 379.83,106.95 478.77,113.65 59.27,4.02 126.88,1.07 184.29,5.86 9.81,12.97 20.22,64.45 23.24,79.94 122.53,25.77 241.73,41.31 366.94,61.6 -0.31,-135.61 72.73,-878.13 63.48,-935.32 -30.64,-7.45 -58.56,-19.2 -89.15,-28.17 -33.05,-9.67 -61.69,-18.77 -92.98,-28.48l-189.41 -50.28c-65.15,3.44 -93.9,7.88 -153.56,23.91 -26.48,7.1 -113.83,34.63 -132.6,35.34z"/>
   <path class="fil3" d="M1129.5 7862.62l98.61 -20.97c7.08,-5.18 43.16,-54.99 51.57,-66.38 218.07,-295.16 548.01,-550.09 857.95,-738.52 25.98,-15.8 50.32,-30.12 76.09,-45.6 26.63,-16.01 59.94,-28.15 84.65,-43.8 -24.88,-58.25 -6,-158.38 19.27,-208.44 24.19,-47.91 69.15,-102.99 134.04,-113.03l-9.98 -30.09 -31.73 1.23c-27.64,2.11 -68.22,-6.4 -93.44,-17.66 -8.62,-3.85 -8.75,-3.26 -10.7,-7.33 -7.89,4.46 7.08,0.14 -12.09,4.34l-604.18 1.1c-263.85,-0.5 -467.58,163.59 -535.76,386.59 -28.81,94.23 -23.36,177.55 -23.36,283.07 0,102.21 0,204.42 0,306.64 0,97.93 5.5,213.03 -0.95,308.84z"/>
   <path class="fil3" d="M3190.69 6904.37c101.86,21.04 259.29,63.87 354.28,106.33 11.2,5.01 18.7,10.09 30.18,14.64 58.61,23.16 85.04,54.19 134.83,104.39 63.46,64 113.9,122.97 169.73,204.71 52.69,77.13 91.22,147.54 135.65,237.38 16.71,16.21 8,-28.82 66.77,75.48 3.82,6.8 2.01,5.68 7.49,13.39 24.7,-68.15 161.36,-332 179.83,-388.39 2.36,-29.85 30.64,-112.14 40.6,-146.13 10.55,-36.02 28.51,-121.23 49.01,-139.54 34.83,-8.32 98.35,15.86 130.86,27.07 0.4,-181.8 32.66,-296.8 103.03,-435.53l-1464.75 -0.38c8.09,22.14 24.36,44.88 35.33,70.03 31.48,72.23 56.42,181.32 27.17,256.53z"/>
   <path class="fil15" d="M2451.68 6625.88c-64.9,10.03 -109.86,65.12 -134.04,113.03 -25.27,50.07 -44.15,150.19 -19.27,208.44 14.11,19.98 36.06,34.65 63.22,42.83l-88.03 340.34c-30.73,122.7 -101.15,408.81 -108.01,534.33 -2.62,48.02 -3.3,60.24 35.85,74.49 92.1,33.48 453.43,61.82 487.02,32.71 16.42,-14.23 16.9,-43.61 19.91,-71.61 3.34,-31.13 5.94,-60.74 4.17,-91.77 -3.13,-34.31 6.59,-50.33 6.91,-83.35 0.29,-30.33 -1.86,-64.67 0.18,-94.44 3.49,-50.96 6.86,-121.94 1.99,-179.88 -4.85,-57.75 0.19,-121.26 -2.71,-181.3 -2.96,-61.52 -3.86,-123.75 -4.04,-183.33 72.95,12.42 134,-6.93 200.25,-15.41 20.01,-11.3 55.12,-18.35 81.45,-27.62 28.73,-10.11 52.43,-22.21 76.55,-35.9 51.04,-28.97 90.67,-57.6 117.64,-103.06 29.25,-75.22 4.31,-184.3 -27.17,-256.53 -10.96,-25.15 -27.24,-47.89 -35.33,-70.03l1464.75 0.38 0.41 -5.15 -1471.08 -1.9c-7.02,-9.62 -7.23,-8.35 -10.56,-20.8 -5.41,5.09 -26.27,70.07 -35.76,85.58 -124.63,203.87 -468.04,57.3 -624.27,-10.03z"/>
   <path class="fil2" d="M9210.75 12566.05l947.97 0.14 -0.45 -832.39 -696.73 -1.65c-0.71,-0.14 -2.54,0.17 -3.03,-1.02 -0.48,-1.15 -1.99,-0.61 -2.87,-1.14 -15.41,10.65 -17.81,21.61 -32.14,35.72l-69.88 65.73c-63.5,50.96 -47.54,26.29 -62.45,139.81 -25.57,194.56 -50.11,405.08 -80.41,594.77z"/>
   <path class="fil14" d="M4593.35 6573.03l-0.41 5.15c-70.36,138.73 -102.63,253.72 -103.03,435.53l639.76 189.57c42.09,-13.81 84.82,-27.3 122.35,-46.3 120.35,-60.9 207.17,-116.38 317.01,-197.11 55.81,-41.03 69.94,-56.32 116.04,-95.92 10.32,-8.85 14.34,-10.17 24.78,-20.24 90.43,-87.29 150.76,-226.04 -24.99,-227.86l9.82 -38.36c-2.84,-49.93 -14.98,-71.93 -62.73,-80.62 -46.56,-8.45 -85.94,3.49 -127.41,9.08 -30.03,-30.1 -54.9,-71.75 -140.84,-53.72 -108.46,22.74 -242.48,96.64 -297.74,112.84 -57.54,16.87 -131.82,17.86 -196.17,11.77 14.17,-46.86 125.19,-233.54 77.7,-260.78 -60.81,-16.15 -173.66,68.62 -207.62,94.3 -30.98,23.43 -55.69,46.28 -80.93,72.39 -31.75,32.88 -38.07,54.88 -57.88,81.77l-7.72 8.53z"/>
   <path class="fil10" d="M1129.5 7862.62c-171.83,44.69 -347.4,80.14 -521.26,120.84 -135.64,31.75 -228.28,61.23 -291.43,195.45 -18.67,39.69 -27.48,82.74 -27.5,132.45 -0.03,89.6 41.09,181.55 69.31,257.74 28.5,76.93 57.46,159.78 83.51,236.63 29.9,88.2 148.1,404.04 167.43,476.67l151.75 429.44c10.09,15.58 49.57,136.95 60.56,166.28 19.9,53.04 40.6,113.13 58.94,166.35 36.4,105.7 87.85,236.62 119.51,338.36l76.25 214.56c14.92,41.36 41.93,125.71 59.91,160.9 9.06,17.71 19.34,29.98 26.11,46.19 13.91,12.28 23.33,28.81 35.34,41.33 35.33,36.82 102.99,73.66 158.01,85.27 51.83,10.96 254.42,17.35 295.59,-4.49 -100.71,5.78 -171.4,-24.96 -228.21,-76.2 -68.86,-62.11 -82.54,-101.64 -114.83,-191.78l-640.02 -1808.52c-39.17,-110.14 -130.52,-353.96 -158.98,-450.23 -48.15,-162.87 27.04,-332.86 194.93,-397.43 33.14,-12.74 85.24,-22.73 121.91,-31.02 43.43,-9.81 82.36,-19.16 124.94,-28.81 82.35,-18.66 165.44,-39.96 246.73,-56.44 9.06,-7.79 28.67,-36.18 30.1,-44.52l-98.61 20.97z"/>
   <path class="fil14" d="M3036.02 8327.16l56.86 563.64c156.57,69.72 351.39,-24.22 457.97,-127.35 -30.04,82.72 -20.52,100.7 93.56,135.19l135.25 -6.19c55.81,-40.59 180.1,-177.18 219.09,-242.7l76.18 -207.75c-62.53,-59.23 -114.94,-120.39 -183.51,-177.02 -113.12,-93.36 -122.02,-82.57 -261.62,-55.64 -196.99,38.02 -399.55,72.92 -593.77,117.8z"/>
   <path class="fil14" d="M2235.48 6253.42c-39.3,41.22 -49.88,122.69 -32.15,186.95 16.64,60.38 55.35,105.11 102.51,131.67 1.94,4.07 2.08,3.48 10.7,7.33 25.22,11.26 65.8,19.77 93.44,17.66l31.73 -1.23 9.98 30.09c156.22,67.34 499.64,213.9 624.27,10.03 9.49,-15.51 30.34,-80.49 35.76,-85.58 0.23,-25.55 8.63,-57.62 10.67,-87.65 2.13,-31.36 0.93,-62.52 -1.37,-93.73 -4.13,-56.13 -14.86,-114.06 -26.02,-166.25 -28.97,-135.57 -58.77,-184.25 -90.84,-295.18 16.03,0.04 22.33,2.23 33.4,-3.51 -74.97,4.51 -160.87,-10.62 -193.5,-83.02l-13.69 23.87c-65.71,155.35 -165.41,193.33 -341.55,164.4 4.52,35.83 95.41,204.18 3.82,237.27 -31.41,11.35 -84.34,-22.39 -131.09,-23.24 -52.75,-0.97 -83.09,14.39 -126.06,30.13z"/>
   <path class="fil12" d="M2235.48 6253.42c42.96,-15.75 73.3,-31.1 126.06,-30.13 46.75,0.85 99.68,34.59 131.09,23.24 91.59,-33.09 0.7,-201.44 -3.82,-237.27 176.13,28.93 275.83,-9.05 341.55,-164.4l13.69 -23.87c32.63,72.4 118.53,87.52 193.5,83.02 186.54,-17.35 271.71,-199.16 192.28,-318.88 -72.02,-108.56 -334.39,-108.51 -425.3,-34.62 -17.61,-42.93 -18.12,-54.38 -48.61,-82.25 -99.44,-90.92 -337.58,-11.94 -433.56,166.08 -14.57,27.04 -32.43,60.86 -42.91,92.17l-30.7 105.82c-69.67,23.91 -71.76,15.41 -117.35,61.89 -70.45,71.82 -58.93,186.23 7.71,272.1 35.39,45.58 64.46,60.2 96.36,87.12z"/>
   <path class="fil1" d="M9580.96 10939.82c10.73,80.88 15.88,129.48 15.88,216.97 0,219.6 9.1,345.83 -115.38,536.35 -9.1,13.91 -19.81,23.39 -25.82,36.86 0.88,0.53 2.4,-0.01 2.87,1.14 0.49,1.18 2.32,0.87 3.03,1.02l696.73 1.65 2.13 -1049.49c-18.97,6.92 -14.03,4.82 -33.97,25.83 -95.22,100.38 -226.27,168.6 -364.53,202.54 -98.21,24.11 -104.09,16.1 -180.94,27.13z"/>
   <path class="fil6" d="M4608.72 4684.64c-7.47,-64.48 5.01,-140.51 32.41,-185.66l-502.01 -408.96c-6.25,-5.19 -15.6,-9.6 -18.51,-14.72 -10.2,-17.96 0.24,-24.1 0.4,-24.42 26.46,-7.08 28.63,4.54 44.51,16.69 9.14,6.98 8.66,5.69 17.79,13.78 1.04,0.91 4.44,4.15 7.14,6.34l273.83 222.21c13.96,11.1 20.8,15.99 32.45,26.19l149.01 121.91c6.77,5.18 5.43,2.46 13.19,9.02 43.64,-66.52 99.65,-104.6 190.87,-136.3 14.43,-216.63 -118.53,-365.33 -269.01,-425.92 -377.72,-152.11 -761.26,293.9 -481.87,662.39 80.01,105.52 223.87,166.34 368.57,154.11 63.86,-5.39 88.99,-21.33 141.22,-36.65z"/>
   <path class="fil5" d="M10430.91 8908.98l0.08 464.23c-106.04,-3.8 -166.88,-119.46 -166.9,-232.12 -0.01,-105.66 49.23,-216.88 166.82,-232.11zm-1.13 576.18l-1.17 4.46c36.1,-9.81 1364.72,-2.51 1456.73,-0.9 94.2,1.67 406.77,3.8 487.71,-0.71 -21.52,-8.93 -450.25,-4.81 -510.32,-2.77l-651.43 -0.78 -187.24 0.45 -0.04 -765.3c-71.71,41.69 -414.67,33.34 -525.68,18.21 -22.96,-3.13 -50.91,-12.91 -67.36,-14.75l0 131.59c-138.19,5.12 -221.06,141.34 -221.03,286.43 0.04,140.57 80.36,285.76 221.03,286.43l-1.2 57.64z"/>
   <path class="fil11" d="M4608.72 4684.64c19.3,133.92 109.09,233.54 223.22,267.74 70.44,21.1 141.26,20.36 207.96,-4.98 286.11,-108.72 267.9,-486.13 26.72,-594.88 -80.75,-36.42 -124.67,-33.09 -216.81,-21.79 -91.23,31.7 -147.24,69.78 -190.87,136.3 -7.77,-6.55 -6.42,-3.83 -13.19,-9.02l-149.01 -121.91c-11.66,-10.2 -18.5,-15.08 -32.45,-26.19l-273.83 -222.21c-2.7,-2.19 -6.1,-5.44 -7.14,-6.34 -9.13,-8.09 -8.65,-6.8 -17.79,-13.78 -15.88,-12.14 -18.04,-23.77 -44.51,-16.69 -0.15,0.32 -10.6,6.46 -0.4,24.42 2.91,5.12 12.25,9.52 18.51,14.72l502.01 408.96c-27.4,45.15 -39.88,121.18 -32.41,185.66z"/>
   <path class="fil3" d="M11114.38 6155.88l0 302.12c0,37.67 28.74,67.61 67.49,67.61l446.43 0c119.06,0 103.45,-40.33 103.68,-167.91 26.21,12.53 153.5,117.76 173.78,121.6l-0.12 -348.27c-38.85,20.21 -128.65,96.88 -172.6,122.98 -6.18,-66.15 16.1,-145.03 -46.88,-164.81 -21.92,-6.88 -374.21,-3.2 -427.62,-3.2 -71.13,0 -144.15,-11.23 -144.15,69.87z"/>
   <path class="fil15" d="M3092.89 8890.79l-56.86 -563.64c-17.08,-112.15 13.18,-117.03 -111.56,-103.33 -64.44,7.08 -148.54,11.03 -206.73,23.25 -27.79,46.42 6.18,388.04 12.77,456.64 8.76,91.38 33.61,346.1 74.1,409.17 26.3,5.28 181.79,-37.64 221.17,-47.12 38.86,-9.36 81.31,-8.4 79.09,-53.92 -1.94,-39.88 -9.77,-80.44 -11.99,-121.06z"/>
   <path class="fil15" d="M4269.45 7272.3c55.16,44.18 299.17,120.81 390.06,147.79 72.39,21.49 381.29,117.94 441.47,96.2 5.16,-3.3 7.89,7.24 14.04,-32.2l32.57 -210.41c6.38,-40.21 12.07,-48.7 -17.92,-70.41l-639.76 -189.57c-32.51,-11.22 -96.03,-35.39 -130.86,-27.07 -20.5,18.31 -38.45,103.51 -49.01,139.54 -9.96,33.99 -38.23,116.29 -40.6,146.13z"/>
   <path class="fil4" d="M1000.33 10382.84c-31.67,-101.75 -83.12,-232.66 -119.51,-338.36 -18.34,-53.23 -39.04,-113.32 -58.94,-166.35 -10.99,-29.33 -50.48,-150.7 -60.56,-166.28 -67.3,19.08 -69.24,9.17 -145.68,55.46 -227.58,137.8 -220.06,518.76 55.43,635.53 52.91,22.43 112.02,33.19 175.3,27.8 73.43,-6.25 99.04,-25.97 153.97,-47.79z"/>
   <path class="fil16" d="M17279.54 5882.91c7.9,16.02 8.33,11.17 29.01,18.23 30.83,10.54 69.35,47.79 85.22,71.52l6.82 10.84c53.58,91.75 51.61,223.75 32.86,324.76l-10.7 64.07c-40.22,-9.94 -68.15,-9.6 -106.27,5.36l-59.77 31.24c-11.2,6.94 1.67,1.98 -14.34,8.63l-90.31 85.28c-68.23,68.62 -141.04,154.4 -195.56,237.18 -9.77,14.83 -25.78,41.51 -35.7,53.4 -21.64,0.01 -41.71,-1.19 -58.62,5.7l-1.62 34.75c28.3,6.03 167.29,6.04 194.1,0 4.64,-17.82 6.53,-17.54 -0.01,-34.77 -20.59,-8.45 -50.71,-5.65 -76.62,-5.66 1.35,-12.9 15.46,-26.6 24.07,-39.05 50.14,-72.53 77.27,-100.17 125.97,-162.84 12.59,-16.2 90.39,-94.72 110.66,-107.38l48.65 -34.82c1.1,-0.72 4.13,-2.83 5.22,-3.56 8.6,-5.87 10.13,-7.37 19.66,-11.96 23.33,-11.25 70.03,-34.67 101.25,-10.74 111.01,85.05 71.06,290.12 40.69,410.03 -9.49,37.46 -51.62,173.19 -67.19,193.06l-4.01 -12.56c-9.3,-16.3 -14.74,-33.22 -28.63,-38.61 -7.98,-3.09 1.25,-2.88 -12.56,-2.21 -20.81,1.02 14,-3.9 -9.01,1.9 -1.67,0.42 -3.1,1.33 -4.46,1.76 -32.18,10.23 22.94,76.72 22.96,76.76 -15.06,15.41 -37.59,12.08 -54.35,49.65 -11.89,26.65 -6.41,66.8 -6.56,99.37 -0.38,81.14 39.85,93.41 118.99,93.3 142.75,-0.21 285.7,-0.56 428.43,0.04 79.8,0.34 102.82,-27.07 102.49,-107.06 -0.18,-44.34 10.13,-130.1 -80.01,-132.61 -140.5,-3.91 -288.02,0.01 -429.28,0.17 57.72,-142.24 175.78,-503.7 45.99,-643.27 -13.08,-14.08 -14.33,-7.62 -11.73,-22.15 5.09,-28.59 11.96,-49.16 15.89,-78.41 7.71,-57.23 15.77,-117.67 11.35,-178.96 -3.75,-52.06 -15.92,-108.83 -35.47,-150.15 -20.94,-44.25 -46.66,-75.08 -85.02,-105.6 -12.81,-9.91 -30.25,-19.58 -49.03,-25.01 -32.1,-9.29 -44.99,-5.33 -43.41,30.36z"/>
   <path class="fil12" d="M4029.68 8878.77l-250.02 13.68 -135.25 6.19c-41.12,15.91 -80.99,-7.04 -101.37,39.67 -17.58,40.29 9.89,78.48 49.43,81.04 79.5,5.17 192.55,-21.76 269.12,-11.62 11.81,-11.12 727.15,-44.29 810.64,-50.27 135.89,-9.72 272.64,-16.07 408.43,-23.76 138.11,-7.82 272.23,-17.6 411.48,-23.18 34.71,-9.52 128.77,-4.98 173.15,-11.12 24.01,-3.31 43.73,-17.79 49.57,-39.54 8.71,-32.38 -6.3,-50.53 -21.37,-65.91 -28.51,-15.48 -63.9,-8.38 -98.65,-6.51l-1565.15 91.33z"/>
   <path class="fil10" d="M2010.52 9555.95c-174.8,13.9 -272.87,30.03 -455.26,-0.51l-133.83 -30.7c-0.18,13.85 51.24,131.55 61.46,152.25 66.99,135.76 151.04,303.18 269.9,392.73 125.46,94.52 211.08,31.61 247.43,-103.91 30.98,-115.54 27.97,-288 10.31,-409.87z"/>
   <path class="fil6" d="M20225.43 8239.21c0.01,63.47 -10.65,135.71 41.65,172.74 31.48,22.31 63.26,26.71 104.97,16.64 -8.9,51.01 -21.62,96.48 -40.65,144.25 -18.29,45.94 -42.91,86.96 -58.59,127.41 -38.39,-19.78 -99.44,-56.54 -157.97,7.73 -16.28,17.87 -67.65,122.41 -67.47,162.53 0.32,73.99 55.22,90.69 81.64,103.05 15.02,7.04 10.23,8.82 22.38,18.48 70.57,56.12 147.51,-86.48 195.24,-160.3 74,-114.48 162.98,-314.49 162.97,-448.24 0,-70.38 1.46,-123.26 -26.07,-192.86 -15.8,-39.94 -32.46,-81.59 -73.29,-88.42 -35.03,-5.86 -39.34,8.3 -59.26,16.5 -21.88,8.99 -125.72,-2.99 -125.55,120.49z"/>
   <path class="fil2" d="M17189.25 3157.12l120.9 105.64c21.14,-12.6 38.29,-39.97 94.86,-60.09 128.43,-45.68 320.21,10.51 294.84,142.09 -26.34,136.63 -263.96,147.68 -281.53,344.52l171.48 24.45c14.32,-16.97 3.54,-31.02 34.3,-71.43 69.43,-91.25 235.51,-118.25 262.28,-300.71 30.6,-208.53 -176.72,-295.7 -368.7,-305.98 -117.43,-6.29 -266.28,41.08 -328.43,121.5z"/>
   <path class="fil6" d="M16741.96 5926.17c-7.01,-4.74 -20.12,0.96 -4.52,-13.83l-19.27 16.86c-7.09,7.12 -10.85,11.01 -17.93,18.09 -86.13,86.11 -128.17,208.27 -158.51,330.31 -37.76,151.82 -58.15,315.18 -63.81,496.06 19.94,2.82 45.4,13.72 56.36,27.08l150.76 -638.52c6.2,-26.54 19.98,-71.07 23.13,-90.82l-16.61 281.61c28.81,15.47 107.33,-30.97 152.06,-50.24 93.03,-40.08 208.56,-100.61 294.1,-152.4 57.36,-34.73 127.43,-95.43 128.51,-96.02l-23.86 363.22c16.01,-6.65 3.14,-1.69 14.34,-8.63l59.77 -31.24c38.11,-14.96 66.04,-15.3 106.27,-5.36l10.7 -64.07c18.75,-101.02 20.72,-233.02 -32.86,-324.76l-6.82 -10.84c-15.87,-23.73 -54.39,-60.98 -85.22,-71.52 -20.67,-7.06 -21.1,-2.21 -29.01,-18.23l-0.77 0 -8.1 118.49c-10.76,22.8 2.44,-0.04 -15.8,13.85 -12,9.14 -3.49,1.44 -13.16,13.54 -66.88,83.67 -438.92,267.79 -515.46,287.05 8.21,-77.19 11.23,-180.56 15.94,-263.77 1.93,-34.17 9.66,-49.16 -8.41,-64.09l-5.91 -3.46c2.55,-11.99 4.56,-17.97 6.45,-30.57 2.59,-17.25 -1.97,-14.49 7.64,-27.77z"/>
   <path class="fil0" d="M2712.48 7808.67c32.54,-54.95 -74.15,-35.67 154.09,-44.07 65.19,-2.4 122.59,-2.9 178.09,-19.16 2.92,-36.71 -20.01,-128.85 -27.14,-167.97l-102.46 -506.52c-66.25,8.49 -127.3,27.83 -200.25,15.41 0.19,59.58 1.08,121.8 4.04,183.33 2.9,60.04 -2.14,123.56 2.71,181.3 4.87,57.93 1.5,128.92 -1.99,179.88 -2.03,29.77 0.11,64.11 -0.18,94.44 -0.32,33.02 -10.03,49.04 -6.91,83.35z"/>
   <path class="fil6" d="M15447.87 9654.98c43.76,0.43 218.11,5.45 244.3,-2.95 4.6,-27.71 40.66,-103.93 54.03,-135.98 21.14,-50.64 166.38,-392.65 168.52,-413.5 -18.44,-6.71 -344.91,-4.77 -360.5,2.52l-106.35 549.91z"/>
   <path class="fil6" d="M4074.93 8442.01l-76.18 207.75c-38.99,65.51 -163.28,202.11 -219.09,242.7l250.02 -13.68 10.51 -2.94c18.48,-6.09 13.5,-3.31 19.3,-16.45l390.95 -1049.98c-94.85,-2.31 -141.62,6.31 -170.21,84.91 -22.87,62.88 -45.8,123.2 -68.61,184.03 -29.34,78.22 -110.82,306.39 -136.7,363.67z"/>
   <path class="fil5" d="M15368.85 7010.4l-563.61 0.02c58.62,290.27 89.5,268.29 313.35,268.29 91.5,0 202.1,16.73 250.27,-38.3 60.41,-69.02 5.48,-145.85 0,-230.01z"/>
   <path class="fil10" d="M11411.9 7937.17l250.22 0.02c124.84,0.43 126.93,-93.55 99.11,-137.36 -36.62,-57.68 -129.14,-40.98 -223.11,-40.98 -95.19,0 -184.33,-15.69 -225.37,38.6 -24.88,32.93 -38.6,140.43 99.15,139.72z"/>
   <path class="fil6" d="M5034.38 8169.32c-74.84,10.91 -135.88,71.54 -123.52,159.12 10.13,71.71 74.14,131.64 159.43,120.71 182.78,-23.4 146.94,-306.45 -35.9,-279.82z"/>
   <path class="fil0" d="M10430.91 8908.98c-117.59,15.23 -166.83,126.45 -166.82,232.11 0.01,112.66 60.85,228.32 166.9,232.12l-0.08 -464.23z"/>
   <path class="fil3" d="M19075.63 4719.67c-168.54,41.67 -114.97,297.41 64.45,258.64 160.38,-34.65 113.79,-302.7 -64.45,-258.64z"/>
   <path class="fil3" d="M18188.37 4719.66c-164.11,37.69 -112.32,303.04 67.45,258.28 63.68,-15.85 113.47,-83.26 95.57,-160.91 -14.41,-62.52 -79.23,-116.61 -163.02,-97.37z"/>
   <path class="fil3" d="M18651.61 4717.11c-184.04,26.07 -145.43,286.33 34.01,263.12 67.25,-8.71 122.17,-75.58 110.34,-153.09 -9.69,-63.54 -69.46,-120.63 -144.35,-110.02z"/>
   <path class="fil1" d="M17269.62 5727.49c1.44,40.95 15.34,118.64 9.15,155.43l0.77 0c-1.58,-35.69 11.31,-39.66 43.41,-30.36 18.77,5.43 36.22,15.09 49.03,25.01 18.35,4.32 120.01,15.64 138.82,15.91l12 -282.07c-37.52,31.61 -63.31,53.41 -108.86,75.94 -43.41,21.49 -88.99,40.1 -144.32,40.14z"/>
   <path class="fil2" d="M17477 3813.16l-9.02 0c-139.45,0 -140.44,217.48 9.03,216.9 144.7,-0.57 143.64,-216.9 -0.01,-216.9z"/>
  </g>
 </g>
</svg>
