<svg width="54" height="64" viewBox="0 0 54 64" fill="none" xmlns="http://www.w3.org/2000/svg">
<path d="M23.1812 62.3889C24.1956 63.4207 25.5687 64 27 64C28.4313 64 29.8044 63.4207 30.8188 62.3889L52.4182 40.3184C52.9197 39.806 53.3175 39.1976 53.5889 38.5281C53.8603 37.8586 54 37.141 54 36.4163C54 34.9528 53.431 33.5491 52.4182 32.5143C51.4054 31.4794 50.0317 30.898 48.5994 30.898C47.1671 30.898 45.7935 31.4794 44.7807 32.5143L32.3999 45.1651V5.51762C32.3999 4.05426 31.8309 2.65083 30.8183 1.61607C29.8056 0.581314 28.4321 0 27 0C25.5679 0 24.1944 0.581314 23.1817 1.61607C22.1691 2.65083 21.6001 4.05426 21.6001 5.51762V45.1651L9.21935 32.5143C8.71786 32.0018 8.1225 31.5953 7.46727 31.318C6.81205 31.0407 6.10978 30.898 5.40057 30.898C4.69135 30.898 3.98909 31.0407 3.33386 31.318C2.67863 31.5953 2.08327 32.0018 1.58178 32.5143C1.0803 33.0267 0.682491 33.635 0.411087 34.3045C0.139683 34.9741 0 35.6916 0 36.4163C0 37.141 0.139683 37.8586 0.411087 38.5281C0.682491 39.1976 1.0803 39.806 1.58178 40.3184L23.1812 62.3889Z" fill="#E91E63"/>
</svg>
